<?xml version="1.0"?>
<svg xmlns="http://www.w3.org/2000/svg" xmlns:xlink="http://www.w3.org/1999/xlink" version="1.1" id="Capa_1" x="0px" y="0px" viewBox="0 0 22.914 22.914" style="enable-background:new 0 0 22.914 22.914;" xml:space="preserve" width="512px" height="512px" class=""><g><g>
	<path d="M13.023,22.827H0.5c-0.276,0-0.5-0.224-0.5-0.5s0.224-0.5,0.5-0.5h12.523c0.276,0,0.5,0.224,0.5,0.5   S13.3,22.827,13.023,22.827z" data-original="#000000" class="active-path" fill="#00A0FF"/>
	<path d="M22.414,15.581H0.5c-0.276,0-0.5-0.224-0.5-0.5s0.224-0.5,0.5-0.5h21.914c0.276,0,0.5,0.224,0.5,0.5   S22.69,15.581,22.414,15.581z" data-original="#000000" class="active-path" fill="#00A0FF"/>
	<path d="M13.023,8.334H0.5c-0.276,0-0.5-0.224-0.5-0.5s0.224-0.5,0.5-0.5h12.523c0.276,0,0.5,0.224,0.5,0.5   S13.3,8.334,13.023,8.334z" data-original="#000000" class="active-path" fill="#00A0FF"/>
	<path d="M22.414,1.087H0.5c-0.276,0-0.5-0.224-0.5-0.5s0.224-0.5,0.5-0.5h21.914c0.276,0,0.5,0.224,0.5,0.5   S22.69,1.087,22.414,1.087z" data-original="#000000" class="active-path" fill="#00A0FF"/>
</g></g> </svg>
