<svg xmlns="http://www.w3.org/2000/svg" width="20" height="20" viewBox="0 0 20 20"><defs><style>.a{fill:#707070;opacity:0;}.b{fill:#44d62c;}</style></defs><g transform="translate(-100 -210)"><rect class="a" width="20" height="20" transform="translate(100 210)"/><path class="b" d="M18,1,13,0,8,1A1.888,1.888,0,0,0,6,3V14c0,3.3,3.1,6,7,6s7-2.7,7-6V3A1.888,1.888,0,0,0,18,1Zm0,13c0,2.2-2.2,4-5,4s-5-1.8-5-4V10.9a7,7,0,0,0,10,0Zm0-8A5,5,0,0,1,8,6V3l5-1,5,1ZM13,4a.945.945,0,0,0-1,1V8a1,1,0,0,0,2,0V5a.945.945,0,0,0-1-1ZM4,7H1A.945.945,0,0,1,0,6,.945.945,0,0,1,1,5H4A.945.945,0,0,1,5,6,.945.945,0,0,1,4,7Zm0,4H2a.945.945,0,0,1-1-1A.945.945,0,0,1,2,9H4a.945.945,0,0,1,1,1A.945.945,0,0,1,4,11Zm0,4H3a1,1,0,0,1,0-2H4a1,1,0,0,1,0,2Z" transform="translate(100 210)"/></g></svg>