<?xml version="1.0" encoding="utf-8"?>
<!-- Generator: Adobe Illustrator 23.0.1, SVG Export Plug-In . SVG Version: 6.00 Build 0)  -->
<svg version="1.1" id="Layer_1" xmlns="http://www.w3.org/2000/svg" xmlns:xlink="http://www.w3.org/1999/xlink" x="0px" y="0px"
	 viewBox="0 0 20 20" style="enable-background:new 0 0 20 20;" xml:space="preserve">
<style type="text/css">
	.st0{fill:#111111;}
	.st1{opacity:0.3;fill:#CCCCCC;}
	.st2{clip-path:url(#SVGID_2_);fill:#44D62C;}
</style>
<path class="st1" d="M14,2h-2V1c0-0.55-0.45-1-1-1H9C8.45,0,8,0.45,8,1v1H6C5.45,2,5,2.45,5,3v16c0,0.55,0.45,1,1,1h8
	c0.55,0,1-0.45,1-1V3C15,2.45,14.55,2,14,2z"/>
<g>
	<defs>
		<path id="SVGID_1_" d="M14,2h-2V1c0-0.55-0.45-1-1-1H9C8.45,0,8,0.45,8,1v1H6C5.45,2,5,2.45,5,3v16c0,0.55,0.45,1,1,1h8
	c0.55,0,1-0.45,1-1V3C15,2.45,14.55,2,14,2z"/>
	</defs>
	<clipPath id="SVGID_2_">
		<use xlink:href="#SVGID_1_"  style="overflow:visible;"/>
	</clipPath>
	<rect id="batt" x="5" y="20" class="st2" width="10" height="0"/>

	<animate xlink:href="#batt" attributeName="y" from="20" to="18" dur="0.01" begin="0.5s;batt_left0.end+0.5s" fill="freeze" />
	<animate id="batt_left1" xlink:href="#batt" attributeName="height" from="0" to="2" dur="0.01" begin="0.5s;batt_left0.end+0.5s" fill="freeze" />

	<animate xlink:href="#batt" attributeName="y" to="16" dur="0.01" begin="batt_left1.end+0.5s" fill="freeze" />
	<animate id="batt_left2" xlink:href="#batt" attributeName="height" to="4" dur="0.01" begin="batt_left1.end+0.5s" fill="freeze" />

	<animate xlink:href="#batt" attributeName="y" to="14" dur="0.01" begin="batt_left2.end+0.5s" fill="freeze" />
	<animate id="batt_left3" xlink:href="#batt" attributeName="height" to="6" dur="0.01" begin="batt_left2.end+0.5s" fill="freeze" />

	<animate xlink:href="#batt" attributeName="y" to="12" dur="0.01" begin="batt_left3.end+0.5s" fill="freeze" />
	<animate id="batt_left4" xlink:href="#batt" attributeName="height" to="8" dur="0.01" begin="batt_left3.end+0.5s" fill="freeze" />

	<animate xlink:href="#batt" attributeName="y" to="10" dur="0.01" begin="batt_left4.end+0.5s" fill="freeze" />
	<animate id="batt_left5" xlink:href="#batt" attributeName="height" to="10" dur="0.01" begin="batt_left4.end+0.5s" fill="freeze" />

	<animate xlink:href="#batt" attributeName="y" to="8" dur="0.01" begin="batt_left5.end+0.5s" fill="freeze" />
	<animate id="batt_left6" xlink:href="#batt" attributeName="height" to="12" dur="0.01" begin="batt_left5.end+0.5s" fill="freeze" />

	<animate xlink:href="#batt" attributeName="y" to="6" dur="0.01" begin="batt_left6.end+0.5s" fill="freeze" />
	<animate id="batt_left7" xlink:href="#batt" attributeName="height" to="14" dur="0.01" begin="batt_left6.end+0.5s" fill="freeze" />

	<animate xlink:href="#batt" attributeName="y" to="4" dur="0.01" begin="batt_left7.end+0.5s" fill="freeze" />
	<animate id="batt_left8" xlink:href="#batt" attributeName="height" to="16" dur="0.01" begin="batt_left7.end+0.5s" fill="freeze" />

	<animate xlink:href="#batt" attributeName="y" to="2" dur="0.01" begin="batt_left8.end+0.5s" fill="freeze" />
	<animate id="batt_left9" xlink:href="#batt" attributeName="height" to="18" dur="0.01" begin="batt_left8.end+0.5s" fill="freeze" />

	<animate xlink:href="#batt" attributeName="y" to="0" dur="0.01" begin="batt_left9.end+0.5s" fill="freeze" />
	<animate id="batt_left10" xlink:href="#batt" attributeName="height" to="20" dur="0.01" begin="batt_left9.end+0.5s" fill="freeze" />

	<animate xlink:href="#batt" attributeName="y" to="20" dur="0.01" begin="batt_left10.end+0.5s" fill="freeze" />
	<animate id="batt_left0" xlink:href="#batt" attributeName="height"  to="0" dur="0.01" begin="batt_left10.end+0.5s" fill="freeze" />
</g>
<polygon class="st0" points="12,5 8,10.25 8,11 10,11.75 8,17 12,11.75 12,11 10,10.25"/>
</svg>
