<svg xmlns="http://www.w3.org/2000/svg" width="20" height="20" viewBox="0 0 20 20"><defs><style>.a{fill:#707070;opacity:0;}.b{fill:#707070;}</style></defs><g transform="translate(-40 -210)"><rect class="a" width="20" height="20" transform="translate(40 210)"/><path class="b" d="M18,2V12H2V2H18m0-2H2A2.006,2.006,0,0,0,0,2V12a2.006,2.006,0,0,0,2,2H18a2.006,2.006,0,0,0,2-2V2a2.006,2.006,0,0,0-2-2ZM5,5H3V3H5ZM8,5H6V3H8Zm3,0H9V3h2Zm3,0H12V3h2Zm3,0H15V3h2ZM5,8H3V6H5ZM8,8H6V6H8Zm3,0H9V6h2Zm3,0H12V6h2Zm3,0H15V6h2Zm-3,3H6V9h8Z" transform="translate(40 213)"/></g></svg>