<svg xmlns="http://www.w3.org/2000/svg" width="20" height="20" viewBox="0 0 20 20"><defs><style>.a{fill:#222;opacity:0;}.b{fill:#707070;}</style></defs><g transform="translate(-370 -210)"><rect class="a" width="20" height="20" transform="translate(370 210)"/><path class="b" d="M10,0A10,10,0,1,0,20,10,10.029,10.029,0,0,0,10,0ZM2,10a8.024,8.024,0,0,1,8-8,7.481,7.481,0,0,1,4.9,1.7L3.7,14.9A7.481,7.481,0,0,1,2,10Zm8,8a7.481,7.481,0,0,1-4.9-1.7L16.3,5.1A7.481,7.481,0,0,1,18,10,8.024,8.024,0,0,1,10,18Z" transform="translate(370 210)"/></g></svg>