<svg xmlns="http://www.w3.org/2000/svg" width="20" height="20" viewBox="0 0 20 20"><defs><style>.a{fill:#707070;opacity:0;}.b{fill:#707070;}</style></defs><g transform="translate(-310 -210)"><rect class="a" width="20" height="20" transform="translate(310 210)"/><path class="b" d="M4.6,0a1.136,1.136,0,0,0-.8.3.967.967,0,0,0,0,1.4,1.136,1.136,0,0,0,.8.3h6L.3,12.3a.967.967,0,0,0,0,1.4.967.967,0,0,0,1.4,0L12,3.4v6a.908.908,0,0,0,.3.7.967.967,0,0,0,1.4,0,.713.713,0,0,0,.3-.6V0Z" transform="translate(313 213)"/></g></svg>