<svg xmlns="http://www.w3.org/2000/svg" width="20" height="20" viewBox="0 0 20 20"><defs><style>.a{fill:#999;opacity:0;}.b{fill:#999;}</style></defs><g transform="translate(-880 -10)"><rect class="a" width="20" height="20" transform="translate(880 10)"/><path class="b" d="M13.409,12.005l5.3-5.3a1,1,0,0,0,0-1.414h0a1,1,0,0,0-1.414,0l-5.3,5.3-5.3-5.3a1,1,0,0,0-1.414,0h0a1,1,0,0,0,0,1.414l5.3,5.3-5.3,5.3A1,1,0,0,0,6.7,18.719l5.3-5.3,5.3,5.3a1,1,0,0,0,1.414-1.414Z" transform="translate(878.011 8)"/></g></svg>