<?xml version="1.0" encoding="utf-8"?>
<!-- Generator: Adobe Illustrator 23.0.1, SVG Export Plug-In . SVG Version: 6.00 Build 0)  -->
<svg version="1.1" id="Layer_1" xmlns="http://www.w3.org/2000/svg" xmlns:xlink="http://www.w3.org/1999/xlink" x="0px" y="0px"
	 viewBox="0 0 20 20" style="enable-background:new 0 0 20 20;" xml:space="preserve">
<style type="text/css">
	.st1{fill:url(#SVGID_1_);}
</style>
<linearGradient id="SVGID_1_" gradientUnits="userSpaceOnUse" x1="10" y1="18" x2="10" y2="2">
	<stop id="stop1" offset="0" style="stop-color:#222;stop-opacity:0"/>
	<stop id="stop2" offset="0.5" style="stop-color:#222;stop-opacity:0.5"/>
	<stop id="stop3" offset="1" style="stop-color:#222;stop-opacity:0"/>

	<animate id="stop1A" xlink:href="#stop1" attributeName="offset" from="-1" to="1" dur="0.5s" begin="0s;stop1A.end+0.3s" fill="freeze"/>
	<animate id="stop2A" xlink:href="#stop2" attributeName="offset" from="-0.5" to="1.5" dur="0.5s" begin="0s;stop2A.end+0.3s" fill="freeze"/>
	<animate id="stop3A" xlink:href="#stop3" attributeName="offset" from="0" to="2" dur="0.5s" begin="0s;stop3A.end+0.3s" fill="freeze"/>

</linearGradient>
<path class="st1" d="M17,8V4c0-1.1-0.9-2-2-2H7L3,5v3h1v3H3v5c0,1.1,0.9,2,2,2h10c1.1,0,2-0.9,2-2v-5h-1V8H17z M7,8H6V5h1V8z M9,8H8
	V4h1V8z M11,8h-1V4h1V8z M13,8h-1V4h1V8z M15,8h-1V4h1V8z"/>
</svg>
