<svg xmlns="http://www.w3.org/2000/svg" width="20" height="20" viewBox="0 0 20 20"><defs><style>.a{fill:#222;opacity:0;}.b{fill:#707070;fill-rule:evenodd;}</style></defs><g transform="translate(-190 -210)"><rect class="a" width="20" height="20" transform="translate(190 210)"/><path class="b" d="M10,3.4a6.5,6.5,0,1,0,6.5,6.5A6.487,6.487,0,0,0,10,3.4Zm0,10.8A4.2,4.2,0,1,1,14.2,10,4.225,4.225,0,0,1,10,14.2ZM11.2,2.4V0H8.8V2.4A4.869,4.869,0,0,1,10,2.3,4.869,4.869,0,0,1,11.2,2.4ZM5.5,3.8,3.7,2.1,2.1,3.7,3.8,5.4A8.689,8.689,0,0,1,5.5,3.8ZM16.2,5.5l1.7-1.7L16.3,2.2,14.6,3.9A6.074,6.074,0,0,1,16.2,5.5Zm1.4,3.3a4.869,4.869,0,0,1,.1,1.2,4.869,4.869,0,0,1-.1,1.2H20V8.8ZM2.3,10a4.869,4.869,0,0,1,.1-1.2H0v2.3H2.4A3.75,3.75,0,0,1,2.3,10Zm12.2,6.2,1.7,1.7,1.6-1.6-1.7-1.7A6.074,6.074,0,0,1,14.5,16.2ZM8.8,17.6V20h2.3V17.6a4.869,4.869,0,0,1-1.2.1A4.1,4.1,0,0,1,8.8,17.6Zm-5-3.1L2.1,16.2l1.6,1.6,1.7-1.7A6.074,6.074,0,0,1,3.8,14.5Z" transform="translate(190 210)"/></g></svg>