<svg xmlns="http://www.w3.org/2000/svg" width="20" height="20" viewBox="0 0 20 20"><defs><style>.a{fill:#222;opacity:0;}.b{fill:#707070;}</style></defs><g transform="translate(-610 -398)"><rect class="a" width="20" height="20" transform="translate(610 398)"/><path class="b" d="M8,0a8,8,0,1,0,8,8A8.024,8.024,0,0,0,8,0Zm2.96,9.84a.773.773,0,0,1,0,1.12h0a.773.773,0,0,1-1.12,0L8,9.12,6.16,10.96A.792.792,0,1,1,5.04,9.84L6.88,8,5.04,6.16A.792.792,0,1,1,6.16,5.04L8,6.88,9.84,5.04a.773.773,0,0,1,1.12,0h0a.773.773,0,0,1,0,1.12L9.12,8Z" transform="translate(612 400)"/></g></svg>