<svg xmlns="http://www.w3.org/2000/svg" width="20" height="20" viewBox="0 0 20 20"><defs><style>.a{fill:#222;opacity:0;}.b{fill:#c8323c;}</style></defs><g transform="translate(-190 -10)"><rect class="a" width="20" height="20" transform="translate(190 10)"/><path class="b" d="M39.05,44H39v-.05Zm.95.95V47H39v5.021A1.979,1.979,0,0,0,40.979,54H49.05Zm2.971-6.928L43,38h8.021A1.979,1.979,0,0,1,53,39.979V44H52v3h1v1.05L48.95,44H49V40H48v3.05l-1-1V40H46v1.05l-1-1V40h-.05ZM50,44h1V40H50Zm3.294,10.708a1,1,0,0,0,1.414,0h0a1,1,0,0,0,0-1.414l-16-16a1,1,0,0,0-1.414,1.414Z" transform="translate(154 -26)"/></g></svg>