<svg xmlns="http://www.w3.org/2000/svg" width="20" height="20" viewBox="0 0 20 20"><defs><style>.a{fill:#707070;opacity:0;}.b{fill:#707070;}</style></defs><g transform="translate(-220 -210)"><rect class="a" width="20" height="20" transform="translate(220 210)"/><path class="b" d="M0,2V12a2.006,2.006,0,0,0,2,2H4v2a2.006,2.006,0,0,0,2,2H16a2.006,2.006,0,0,0,2-2V6a2.006,2.006,0,0,0-2-2H14V2a2.006,2.006,0,0,0-2-2H2A2.006,2.006,0,0,0,0,2ZM6,6H16V16H6ZM2,2H12V4H6A2.006,2.006,0,0,0,4,6v6H2ZM14,8v5.7l-2.1-2.1L9.4,14.1A.99.99,0,0,1,8,12.7l2.5-2.5L8.3,8Z" transform="translate(221 211)"/></g></svg>