<?xml version="1.0" encoding="utf-8"?>
<!-- Generator: Adobe Illustrator 23.0.1, SVG Export Plug-In . SVG Version: 6.00 Build 0)  -->
<svg version="1.1" id="Layer_1" xmlns="http://www.w3.org/2000/svg" xmlns:xlink="http://www.w3.org/1999/xlink" x="0px" y="0px"
	 viewBox="0 0 500 340" style="enable-background:new 0 0 500 340;" xml:space="preserve">
<style type="text/css">
	.st0{fill:#111111;}
	.st1{fill:#404040;}
</style>
<g>
	<path class="st0" d="M488,340H12c-6.63,0-12-5.37-12-12V12C0,5.37,5.37,0,12,0h476c6.63,0,12,5.37,12,12v316
		C500,334.63,494.63,340,488,340z"/>
</g>
<g>
	<g>
		<path class="st0" d="M73.67,20H64h-4h-9.67C33.58,20,20,33.58,20,50.33V118c0,23.2,18.8,42,42,42s42-18.8,42-42V50.33
			C104,33.58,90.42,20,73.67,20z"/>
	</g>
	<path class="st1" d="M73.67,20H64h-4h-9.67C33.58,20,20,33.58,20,50.33V118c0,23.2,18.8,42,42,42s42-18.8,42-42V50.33
		C104,33.58,90.42,20,73.67,20z M62,52.71c-2.41,0-4-1.96-4-4.36V36.78c0-2.41,1.59-4.36,4-4.36c2.41,0,4,1.96,4,4.36v11.57
		C66,50.75,64.41,52.71,62,52.71z M100,118c0,20.95-17.05,38-38,38s-38-17.05-38-38V50.33C24,35.81,35.81,24,50.33,24H60v4.68
		c-3.64,0.9-6,4.18-6,8.09v11.57c0,3.92,2.36,7.19,6,8.1V72c0,1.1,0.9,2,2,2s2-0.9,2-2V56.44c3.64-0.9,6-4.18,6-8.1V36.78
		c0-3.92-2.36-7.19-6-8.09V24h9.67C88.19,24,100,35.81,100,50.33V118z"/>
</g>
</svg>
