<?xml version="1.0" encoding="utf-8"?>
<!-- Generator: Adobe Illustrator 23.0.1, SVG Export Plug-In . SVG Version: 6.00 Build 0)  -->
<svg version="1.1" id="Layer_1" xmlns="http://www.w3.org/2000/svg" xmlns:xlink="http://www.w3.org/1999/xlink" x="0px" y="0px"
	 viewBox="0 0 500 340" style="enable-background:new 0 0 500 340;" xml:space="preserve">
	<style type="text/css">
		.st0{fill:#111111;}
		.st1{fill:#404040;}
		.st2{fill:#44D62C;}
		.st3{fill:none;stroke:#44D62C;stroke-width:2;stroke-miterlimit:10;}
	</style>

	<path class="st0" d="M488,340H12c-6.63,0-12-5.37-12-12V12C0,5.37,5.37,0,12,0h476c6.63,0,12,5.37,12,12v316 C500,334.63,494.63,340,488,340z"/>
	<path class="st0" d="M73.67,20H64h-4h-9.67C33.58,20,20,33.58,20,50.33V118c0,23.2,18.8,42,42,42s42-18.8,42-42V50.33 C104,33.58,90.42,20,73.67,20z"/>
	<path class="st1" d="M73.67,20H64h-4h-9.67C33.58,20,20,33.58,20,50.33V118c0,23.2,18.8,42,42,42s42-18.8,42-42V50.33
		C104,33.58,90.42,20,73.67,20z M62,52.71c-2.41,0-4-1.96-4-4.36V36.78c0-2.41,1.59-4.36,4-4.36s4,1.96,4,4.36v11.57
		C66,50.75,64.41,52.71,62,52.71z M100,118c0,20.95-17.05,38-38,38s-38-17.05-38-38V50.33C24,35.81,35.81,24,50.33,24H60v4.68
		c-3.64,0.9-6,4.18-6,8.09v11.57c0,3.92,2.36,7.19,6,8.1V72c0,1.1,0.9,2,2,2s2-0.9,2-2V56.44c3.64-0.9,6-4.18,6-8.1V36.78
		c0-3.92-2.36-7.19-6-8.09V24h9.67C88.19,24,100,35.81,100,50.33V118z"/>

	<circle id="dot" class="st2" cx="41" cy="45" r="10" opacity="0"/>
	<circle id="wave" class="st3" cx="41" cy="45" r="7" opacity="0"/>

	<animate id="dot_ani1" xlink:href="#dot" attributeName="opacity" from="0" to="1" dur="0.5" begin="0;dot_ani4.end+0.5s" fill="freeze" />
	<animate id="dot_ani2" xlink:href="#dot" attributeName="r" from="10" to="6" dur="0.1" begin="dot_ani1.end+0.3s" fill="freeze"
		values="10; 7;"
		keyTimes="0; 1"
		keySplines="0 0.5 0.1 1;" />
	<animate id="dot_ani3" xlink:href="#dot" attributeName="r" from="6" to="10" dur="0.2" begin="dot_ani2.end" fill="freeze"
		values="7; 10;"
		keyTimes="0; 1"
		keySplines="0 0.5 0.1 1;" />
	<animate id="dot_ani4" xlink:href="#dot" attributeName="opacity" from="1" to="0" dur="0.5" begin="dot_ani3.end+0.3s" fill="freeze" />

	<animate id="wave_ani1" xlink:href="#wave" attributeName="opacity" from="0" to="1" dur="0.001" begin="dot_ani1.end" fill="freeze" />
	<animate id="wave_ani2" xlink:href="#wave" attributeName="r" from="6" to="26" dur="0.8" begin="dot_ani2.end" fill="freeze"
		keyTimes="0; 1"
		keySplines="0 0.5 0.1 1;" />
	<animate id="wave_ani3" xlink:href="#wave" attributeName="opacity" from="1" to="0" dur="0.3" begin="dot_ani2.end+0.5s" fill="freeze" />
	<animate id="wave_ani4" xlink:href="#wave" attributeName="r" from="26" to="6" dur="0.001" begin="wave_ani3.end" fill="freeze" />
</svg>
