<?xml version="1.0" encoding="utf-8"?>
<!-- Generator: Adobe Illustrator 23.0.1, SVG Export Plug-In . SVG Version: 6.00 Build 0)  -->
<svg version="1.1" xmlns="http://www.w3.org/2000/svg" xmlns:xlink="http://www.w3.org/1999/xlink" x="0px" y="0px"
	 viewBox="0 0 300 300" style="enable-background:new 0 0 300 300;" xml:space="preserve">
<style type="text/css">
	.st0{fill:url(#Background_1_);}
	.st1{opacity:0.5;fill:#44D62C;}
	.st2{fill:url(#SVGID_1_);}
	.st3{fill:url(#SVGID_2_);}
	.st4{fill:url(#SVGID_3_);}
	.st5{fill:#AAAAAA;}
	.st6{display:none;}
	.st7{display:inline;}
	.st8{fill:none;stroke:#212121;stroke-width:0.5;stroke-miterlimit:10;}
	.st9{fill:url(#SVGID_4_);}
	.st10{fill:url(#SVGID_5_);}
	.st11{fill:url(#SVGID_6_);}
	.st12{fill:url(#SVGID_7_);}
	.st13{fill:url(#SVGID_8_);}
	.st14{fill:url(#SVGID_9_);}
	.st15{fill:url(#SVGID_10_);}
	.st16{display:none;fill:url(#SVGID_11_);}
	.st17{fill:url(#Background_2_);}
	.st18{fill:url(#SVGID_12_);}
	.st19{fill:url(#SVGID_13_);}
	.st20{fill:url(#SVGID_14_);}
	.st21{fill:url(#SVGID_15_);}
	.st22{fill:url(#SVGID_16_);}
	.st23{fill:url(#Background_3_);}
	.st24{fill:url(#SVGID_17_);}
	.st25{fill:url(#SVGID_18_);}
	.st26{fill:url(#SVGID_19_);}
	.st27{fill:url(#SVGID_20_);}
	.st28{fill:url(#SVGID_21_);}
</style>
<g id="Stereo">
	<path id="Background_21_" class="st1" d="M150,12c76.09,0,138,61.91,138,138s-61.91,138-138,138S12,226.09,12,150S73.91,12,150,12
		 M150,6C70.6,6,6,70.6,6,150c0,79.4,64.6,144,144,144c79.4,0,144-64.6,144-144C294,70.6,229.4,6,150,6L150,6z"/>
	<radialGradient id="Background_1_" cx="150" cy="150" r="144" gradientUnits="userSpaceOnUse">
		<stop  offset="0.5" style="stop-color:#44D62C;stop-opacity:0"/>
		<stop  offset="1" style="stop-color:#44D62C;stop-opacity:0.2"/>
	</radialGradient>
	<circle id="Background_24_" class="st0" cx="150" cy="150" r="144"/>
	
		<linearGradient id="SVGID_2_" gradientUnits="userSpaceOnUse" x1="-606" y1="1378.8082" x2="-606" y2="1411.6536" gradientTransform="matrix(0 1 -1 0 1592 756)">
		<stop  offset="0" style="stop-color:#44D62C"/>
		<stop id="stopright" offset="1" style="stop-color:#44D62C;stop-opacity:0" />
		<animate id="right1" xlink:href="#stopright" attributeName="offset" from="1" to="0.6" dur="0.5s" begin="0s;right2.end"/>
		<animate id="right2" xlink:href="#stopright" attributeName="offset" from="0.6" to="1" dur="0.5s" begin="right1.end" />
	</linearGradient>
	<path class="st3" d="M210.5,154.53c-2.49,0-4.5-2.03-4.5-4.53s2.01-4.53,4.5-4.53s4.5,2.03,4.5,4.53S212.99,154.53,210.5,154.53z
		 M184.36,158.31c0.18,0.53,0.74,0.81,1.27,0.63s0.81-0.74,0.63-1.27c-1.66-4.96-1.66-10.38,0-15.35c0.18-0.53-0.11-1.1-0.63-1.27
		c-0.52-0.18-1.09,0.11-1.27,0.63c-0.9,2.69-1.36,5.49-1.36,8.31S183.46,155.63,184.36,158.31z M192.42,157.04
		c0.22,0.51,0.8,0.75,1.31,0.53c0.51-0.22,0.74-0.81,0.53-1.32c-1.67-3.97-1.67-8.55,0-12.51c0.21-0.51-0.02-1.1-0.53-1.32
		c-0.51-0.22-1.1,0.02-1.31,0.53c-0.94,2.23-1.42,4.6-1.42,7.04S191.48,154.81,192.42,157.04z M200.61,155.83
		c0.32,0.45,0.95,0.56,1.4,0.23c0.45-0.32,0.55-0.95,0.23-1.4c-1.95-2.75-1.95-6.58,0-9.33c0.32-0.45,0.22-1.08-0.23-1.4
		c-0.45-0.32-1.07-0.22-1.4,0.23c-1.22,1.72-1.86,3.73-1.86,5.83S199.39,154.12,200.61,155.83z M151,150c0-0.56-0.45-1.01-1-1.01
		s-1,0.45-1,1.01s0.45,1.01,1,1.01S151,150.56,151,150z"/>
	
		<linearGradient id="SVGID_3_" gradientUnits="userSpaceOnUse" x1="1442" y1="842.8082" x2="1442" y2="874.7539" gradientTransform="matrix(4.489700e-11 -1 1 4.489700e-11 -756 1592)">
		<stop  offset="0" style="stop-color:#44D62C"/>
		<stop id="stopleft" offset="1" style="stop-color:#44D62C;stop-opacity:0"/>
		<animate id="left1" xlink:href="#stopleft" attributeName="offset" from="1" to="0.6" dur="0.5s" begin="0s;left2.end"/>
		<animate id="left2" xlink:href="#stopleft" attributeName="offset" from="0.6" to="1" dur="0.5s" begin="left1.end" />
	</linearGradient>
	<path class="st4" d="M89.5,145.47c2.49,0,4.5,2.03,4.5,4.53s-2.01,4.53-4.5,4.53S85,152.5,85,150S87.01,145.47,89.5,145.47z
		 M115.64,141.69c-0.18-0.53-0.74-0.81-1.27-0.63s-0.81,0.74-0.63,1.27c1.66,4.96,1.66,10.38,0,15.35c-0.18,0.53,0.11,1.1,0.63,1.27
		c0.52,0.18,1.09-0.11,1.27-0.63c0.9-2.69,1.36-5.49,1.36-8.31S116.54,144.37,115.64,141.69z M107.58,142.96
		c-0.22-0.51-0.8-0.75-1.31-0.53c-0.51,0.22-0.74,0.81-0.53,1.32c1.67,3.97,1.67,8.55,0,12.51c-0.21,0.51,0.02,1.1,0.53,1.32
		c0.51,0.22,1.1-0.02,1.31-0.53c0.94-2.23,1.42-4.6,1.42-7.04S108.52,145.19,107.58,142.96z M99.39,144.17
		c-0.32-0.45-0.95-0.56-1.4-0.23c-0.45,0.32-0.55,0.95-0.23,1.4c1.95,2.75,1.95,6.58,0,9.33c-0.32,0.45-0.22,1.08,0.23,1.4
		c0.45,0.32,1.07,0.22,1.4-0.23c1.22-1.72,1.86-3.73,1.86-5.83S100.61,145.88,99.39,144.17z M149,150c0,0.56,0.45,1.01,1,1.01
		s1-0.45,1-1.01s-0.45-1.01-1-1.01S149,149.44,149,150z"/>
	<g id="Person_20_">
		<radialGradient id="SVGID_4_" cx="150" cy="155" r="29" gradientUnits="userSpaceOnUse">
			<stop  offset="0" style="stop-color:#CCCCCC"/>
			<stop  offset="1" style="stop-color:#FFFFFF;stop-opacity:0"/>
		</radialGradient>
		<circle class="st9" cx="150" cy="155" r="29"/>
		<linearGradient id="SVGID_5_" gradientUnits="userSpaceOnUse" x1="150" y1="139" x2="150" y2="171.8333">
			<stop  offset="0" style="stop-color:#D9D9D9"/>
			<stop  offset="1" style="stop-color:#A9A9A9"/>
		</linearGradient>
		<path class="st10" d="M176,156.42c0,10.92-11.64,15.42-26,15.42s-26-4.5-26-15.42c0-6.86,11.64-17.42,26-17.42
			S176,149.56,176,156.42z"/>
		<linearGradient id="SVGID_6_" gradientUnits="userSpaceOnUse" x1="150" y1="130" x2="150" y2="163.9456">
			<stop  offset="0" style="stop-color:#E6E6E6"/>
			<stop  offset="1" style="stop-color:#C6C6C6"/>
		</linearGradient>
		<path class="st11" d="M151.78,132.16c-0.33-1.11-1-2.16-1.78-2.16s-1.45,1.06-1.78,2.16C141.33,133.29,136,140.85,136,149
			c0,8.84,6.27,15,14,15s14-6.16,14-15C164,140.85,158.67,133.29,151.78,132.16z"/>
		<path class="st5" d="M167,144h-2c-1.1,0-2,0.9-2,2v1h-26v-1c0-1.1-0.9-2-2-2h-2c-1.1,0-2,0.9-2,2v8c0,1.1,0.9,2,2,2h2
			c1.1,0,2-0.9,2-2v-1h26v1c0,1.1,0.9,2,2,2h2c1.1,0,2-0.9,2-2v-8C169,144.9,168.1,144,167,144z"/>
		<g class="st6">
			<g class="st7">
				<path class="st8" d="M150,149v2 M149,150h2"/>
			</g>
		</g>
	</g>
</g>
</svg>
