<?xml version="1.0" encoding="utf-8"?>
<!-- Generator: Adobe Illustrator 23.0.1, SVG Export Plug-In . SVG Version: 6.00 Build 0)  -->
<svg version="1.1" xmlns="http://www.w3.org/2000/svg" xmlns:xlink="http://www.w3.org/1999/xlink" x="0px" y="0px"
	 viewBox="0 0 300 300" style="enable-background:new 0 0 300 300;" xml:space="preserve">
<style type="text/css">
	.st0{fill:url(#Background_1_);}
	.st1{opacity:0.5;fill:#44D62C;}
	.st2{fill:url(#SVGID_1_);}
	.st3{fill:url(#SVGID_2_);}
	.st4{fill:url(#SVGID_3_);}
	.st5{fill:#AAAAAA;}
	.st6{display:none;}
	.st7{display:inline;}
	.st8{fill:none;stroke:#212121;stroke-width:0.5;stroke-miterlimit:10;}
	.st9{fill:url(#SVGID_4_);}
	.st10{fill:url(#SVGID_5_);}
	.st11{fill:url(#SVGID_6_);}
	.st12{fill:url(#SVGID_7_);}
	.st13{fill:url(#SVGID_8_);}
	.st14{fill:url(#SVGID_9_);}
	.st15{fill:url(#SVGID_10_);}
	.st16{display:none;fill:url(#SVGID_11_);}
	.st17{fill:url(#Background_2_);}
	.st18{fill:url(#SVGID_12_);}
	.st19{fill:url(#SVGID_13_);}
	.st20{fill:url(#SVGID_14_);}
	.st21{fill:url(#SVGID_15_);}
	.st22{fill:url(#SVGID_16_);}
	.st23{fill:url(#Background_3_);}
	.st24{fill:url(#SVGID_17_);}
	.st25{fill:url(#SVGID_18_);}
	.st26{fill:url(#SVGID_19_);}
	.st27{fill:url(#SVGID_20_);}
	.st28{fill:url(#SVGID_21_);}
</style>
<g id="Surround">
	<radialGradient id="Background_1_" cx="150" cy="150" r="144" gradientUnits="userSpaceOnUse">
		<stop  offset="0.5" style="stop-color:#44D62C;stop-opacity:0"/>
		<stop  offset="1" style="stop-color:#44D62C;stop-opacity:0.2"/>
	</radialGradient>
	<circle id="Background_22_" class="st0" cx="150" cy="150" r="144"/>
	<path id="Background_19_" class="st1" d="M150,12c76.09,0,138,61.91,138,138s-61.91,138-138,138S12,226.09,12,150S73.91,12,150,12
		 M150,6C70.6,6,6,70.6,6,150c0,79.4,64.6,144,144,144c79.4,0,144-64.6,144-144C294,70.6,229.4,6,150,6L150,6z"/>
	<g id="Person_18_">
		<radialGradient id="SVGID_1_" cx="150" cy="155" r="29" gradientUnits="userSpaceOnUse">
			<stop  offset="0" style="stop-color:#CCCCCC"/>
			<stop  offset="1" style="stop-color:#FFFFFF;stop-opacity:0"/>
		</radialGradient>
		<circle class="st2" cx="150" cy="155" r="29"/>
		<linearGradient id="SVGID_2_" gradientUnits="userSpaceOnUse" x1="150" y1="139" x2="150" y2="171.8333">
			<stop  offset="0" style="stop-color:#D9D9D9"/>
			<stop  offset="1" style="stop-color:#A9A9A9"/>
		</linearGradient>
		<path class="st3" d="M176,156.42c0,10.92-11.64,15.42-26,15.42s-26-4.5-26-15.42c0-6.86,11.64-17.42,26-17.42
			S176,149.56,176,156.42z"/>
		<linearGradient id="SVGID_3_" gradientUnits="userSpaceOnUse" x1="150" y1="130" x2="150" y2="163.9456">
			<stop  offset="0" style="stop-color:#E6E6E6"/>
			<stop  offset="1" style="stop-color:#C6C6C6"/>
		</linearGradient>
		<path class="st4" d="M151.78,132.16c-0.33-1.11-1-2.16-1.78-2.16s-1.45,1.06-1.78,2.16C141.33,133.29,136,140.85,136,149
			c0,8.84,6.27,15,14,15s14-6.16,14-15C164,140.85,158.67,133.29,151.78,132.16z"/>
		<path class="st5" d="M167,144h-2c-1.1,0-2,0.9-2,2v1h-26v-1c0-1.1-0.9-2-2-2h-2c-1.1,0-2,0.9-2,2v8c0,1.1,0.9,2,2,2h2
			c1.1,0,2-0.9,2-2v-1h26v1c0,1.1,0.9,2,2,2h2c1.1,0,2-0.9,2-2v-8C169,144.9,168.1,144,167,144z"/>
		<g class="st6">
			<g class="st7">
				<path class="st8" d="M150,149v2 M149,150h2"/>
			</g>
		</g>
	</g>
	<linearGradient id="SVGID_4_" gradientUnits="userSpaceOnUse" x1="150" y1="9" x2="150" y2="126.7503">
		<stop  offset="0" style="stop-color:#44D62C"/>
		<stop id="stopA" offset="1" style="stop-color:#44D62C;stop-opacity:0"/>
		<animate id="stopA1" xlink:href="#stopA" attributeName="offset" from="0.09" to="1" dur="1s" begin="0s;stopA2.end+0.2s" fill="freeze"/>
		<animate id="stopA2" xlink:href="#stopA" attributeName="offset" from="1" to="0.09" dur="1s" begin="stopA1.end+0.2s" fill="freeze" />
	</linearGradient>
	<path class="st9" d="M154.6,9.5c0,2.49-2.06,4.5-4.6,4.5s-4.6-2.01-4.6-4.5S147.46,5,150,5S154.6,7.01,154.6,9.5z M173.18,122.73
		c0.55-0.11,0.91-0.64,0.8-1.18c-0.11-0.54-0.65-0.89-1.21-0.78c-14.92,2.95-30.63,2.95-45.55,0c-0.55-0.11-1.09,0.24-1.21,0.78
		c-0.11,0.54,0.25,1.07,0.8,1.18c7.59,1.5,15.39,2.27,23.18,2.27S165.59,124.24,173.18,122.73z M171.84,114.84
		c0.55-0.11,0.91-0.64,0.8-1.18c-0.11-0.54-0.65-0.89-1.21-0.78c-14.01,2.81-28.83,2.81-42.85,0c-0.56-0.11-1.09,0.24-1.21,0.78
		c-0.11,0.54,0.24,1.07,0.8,1.18c7.14,1.43,14.49,2.16,21.84,2.16S164.69,116.27,171.84,114.84z M170.49,106.94
		c0.55-0.11,0.91-0.64,0.79-1.18c-0.11-0.54-0.66-0.89-1.21-0.77c-13.15,2.68-27,2.68-40.15,0c-0.56-0.11-1.1,0.23-1.21,0.77
		c-0.12,0.54,0.24,1.07,0.79,1.18c6.71,1.37,13.6,2.06,20.49,2.06S163.78,108.31,170.49,106.94z M169.15,99.04
		c0.55-0.11,0.91-0.65,0.79-1.19c-0.12-0.54-0.66-0.89-1.21-0.77c-12.27,2.55-25.17,2.55-37.45,0c-0.56-0.12-1.09,0.23-1.21,0.77
		c-0.12,0.54,0.24,1.07,0.79,1.19c6.28,1.3,12.72,1.96,19.15,1.96S162.87,100.34,169.15,99.04z M167.8,91.12
		c0.55-0.12,0.9-0.65,0.78-1.19c-0.12-0.54-0.67-0.88-1.22-0.77c-11.46,2.43-23.29,2.43-34.74,0c-0.55-0.12-1.1,0.23-1.22,0.77
		c-0.12,0.54,0.23,1.07,0.78,1.19C138.07,92.37,144.05,93,150,93S161.93,92.37,167.8,91.12z M166.46,83.22
		c0.55-0.12,0.9-0.65,0.78-1.19c-0.12-0.54-0.67-0.88-1.22-0.76c-10.58,2.3-21.46,2.3-32.03,0c-0.55-0.12-1.1,0.22-1.22,0.76
		c-0.12,0.54,0.22,1.07,0.78,1.19C138.97,84.4,144.51,85,150,85S161.03,84.4,166.46,83.22z M165.12,75.31
		c0.55-0.12,0.9-0.66,0.77-1.2c-0.13-0.54-0.68-0.87-1.23-0.75c-9.68,2.17-19.64,2.17-29.32,0c-0.55-0.12-1.1,0.21-1.23,0.75
		c-0.13,0.54,0.22,1.08,0.77,1.2C139.87,76.43,144.96,77,150,77S160.13,76.43,165.12,75.31z M163.78,67.4
		c0.55-0.13,0.89-0.67,0.76-1.21c-0.13-0.54-0.68-0.86-1.23-0.74c-8.76,2.04-17.85,2.04-26.61,0c-0.55-0.12-1.1,0.2-1.23,0.74
		c-0.13,0.54,0.21,1.08,0.76,1.21c4.54,1.06,9.17,1.6,13.78,1.6S159.24,68.46,163.78,67.4z M162.44,59.5
		c0.55-0.13,0.88-0.68,0.74-1.21c-0.14-0.54-0.7-0.86-1.24-0.73c-7.81,1.92-16.08,1.92-23.89,0c-0.54-0.14-1.1,0.19-1.24,0.73
		c-0.14,0.54,0.19,1.08,0.74,1.21c4.07,1,8.26,1.5,12.44,1.5S158.38,60.49,162.44,59.5z M161.11,51.57
		c0.55-0.14,0.87-0.69,0.72-1.22c-0.15-0.53-0.71-0.85-1.25-0.71c-6.91,1.81-14.25,1.81-21.16,0c-0.54-0.14-1.11,0.17-1.25,0.71
		c-0.15,0.53,0.18,1.08,0.72,1.22C142.52,52.52,146.25,53,150,53S157.48,52.52,161.11,51.57z M159.78,43.62
		c0.54-0.16,0.85-0.71,0.69-1.24c-0.16-0.53-0.73-0.83-1.27-0.68c-6,1.72-12.41,1.72-18.41,0c-0.54-0.16-1.11,0.15-1.27,0.68
		c-0.16,0.53,0.15,1.09,0.69,1.24C143.41,44.54,146.7,45,150,45S156.59,44.54,159.78,43.62z M158.46,35.64
		c0.54-0.18,0.82-0.74,0.64-1.27c-0.18-0.52-0.76-0.81-1.3-0.63c-5.05,1.66-10.56,1.66-15.61,0c-0.54-0.18-1.12,0.11-1.3,0.63
		c-0.18,0.52,0.11,1.09,0.64,1.27c2.74,0.9,5.58,1.36,8.46,1.36S155.72,36.54,158.46,35.64z M157.16,27.58
		c0.52-0.22,0.76-0.8,0.54-1.31c-0.22-0.51-0.83-0.74-1.34-0.53c-4.03,1.67-8.69,1.67-12.73,0c-0.51-0.21-1.12,0.02-1.34,0.53
		c-0.22,0.51,0.02,1.1,0.54,1.31c2.27,0.94,4.68,1.42,7.16,1.42S154.89,28.52,157.16,27.58z M155.94,19.39
		c0.46-0.32,0.57-0.95,0.24-1.4c-0.33-0.45-0.97-0.55-1.43-0.23c-2.8,1.95-6.7,1.95-9.49,0c-0.46-0.32-1.1-0.22-1.43,0.23
		c-0.33,0.45-0.22,1.07,0.24,1.4c1.75,1.22,3.8,1.86,5.94,1.86S154.19,20.61,155.94,19.39z M150,149c-0.57,0-1.02,0.45-1.02,1
		s0.46,1,1.02,1s1.02-0.45,1.02-1S150.57,149,150,149z"/>
	
		<linearGradient id="SVGID_5_" gradientUnits="userSpaceOnUse" x1="-1246" y1="661" x2="-1246" y2="778.7502" gradientTransform="matrix(0 1 -1 0 952 1396)">
		<stop  offset="0" style="stop-color:#44D62C"/>
		<stop id="stopC" offset="0.09" style="stop-color:#44D62C;stop-opacity:0"/>
		<animate id="stopC1" xlink:href="#stopC" attributeName="offset" from="0.09" to="1" dur="1s" begin="0.68s;stopC2.end+0.2s" fill="freeze"/>
		<animate id="stopC2" xlink:href="#stopC" attributeName="offset" from="1" to="0.09" dur="1s" begin="stopC1.end+0.2s" fill="freeze" />
	</linearGradient>
	<path class="st10" d="M290.5,154.5c-2.49,0-4.5-2.01-4.5-4.5s2.01-4.5,4.5-4.5s4.5,2.01,4.5,4.5S292.99,154.5,290.5,154.5z
		 M177.27,172.66c0.11,0.54,0.64,0.89,1.18,0.78s0.89-0.64,0.78-1.18c-2.95-14.58-2.95-29.94,0-44.52c0.11-0.54-0.24-1.07-0.78-1.18
		c-0.54-0.11-1.07,0.24-1.18,0.78c-1.5,7.42-2.27,15.04-2.27,22.66S175.76,165.24,177.27,172.66z M185.16,171.34
		c0.11,0.54,0.64,0.89,1.18,0.78c0.54-0.11,0.89-0.63,0.78-1.18c-2.81-13.7-2.81-28.19,0-41.88c0.11-0.55-0.24-1.07-0.78-1.18
		c-0.54-0.11-1.07,0.24-1.18,0.78c-1.43,6.98-2.16,14.16-2.16,21.34S183.73,164.36,185.16,171.34z M193.06,170.03
		c0.11,0.54,0.64,0.89,1.18,0.77c0.54-0.11,0.89-0.65,0.77-1.18c-2.68-12.85-2.68-26.39,0-39.24c0.11-0.55-0.23-1.07-0.77-1.18
		c-0.54-0.11-1.07,0.23-1.18,0.77c-1.37,6.56-2.06,13.3-2.06,20.03S191.69,163.47,193.06,170.03z M200.96,168.72
		c0.11,0.54,0.65,0.88,1.19,0.77c0.54-0.12,0.89-0.64,0.77-1.19c-2.55-12-2.55-24.61,0-36.6c0.12-0.54-0.23-1.07-0.77-1.19
		c-0.54-0.11-1.07,0.23-1.19,0.77c-1.3,6.13-1.96,12.43-1.96,18.72S199.66,162.58,200.96,168.72z M208.88,167.4
		c0.12,0.54,0.65,0.88,1.19,0.77c0.54-0.12,0.88-0.65,0.77-1.19c-2.43-11.2-2.43-22.76,0-33.96c0.12-0.54-0.23-1.07-0.77-1.19
		c-0.54-0.12-1.07,0.23-1.19,0.77c-1.25,5.74-1.88,11.59-1.88,17.4S207.63,161.67,208.88,167.4z M216.78,166.09
		c0.12,0.54,0.65,0.88,1.19,0.76c0.54-0.12,0.88-0.66,0.76-1.19c-2.3-10.34-2.3-20.97,0-31.31c0.12-0.54-0.22-1.07-0.76-1.19
		c-0.54-0.12-1.07,0.22-1.19,0.76C215.6,139.22,215,144.63,215,150S215.6,160.78,216.78,166.09z M224.69,164.78
		c0.12,0.54,0.66,0.88,1.2,0.75c0.54-0.12,0.87-0.66,0.75-1.2c-2.17-9.46-2.17-19.2,0-28.66c0.12-0.54-0.21-1.07-0.75-1.2
		s-1.08,0.21-1.2,0.75c-1.12,4.88-1.69,9.85-1.69,14.78S223.57,159.9,224.69,164.78z M232.6,163.47c0.13,0.54,0.67,0.87,1.21,0.74
		s0.86-0.67,0.74-1.21c-2.04-8.56-2.04-17.45,0-26.01c0.12-0.53-0.2-1.08-0.74-1.21c-0.54-0.13-1.08,0.2-1.21,0.74
		c-1.06,4.43-1.6,8.97-1.6,13.47S231.54,159.04,232.6,163.47z M240.5,162.16c0.13,0.54,0.68,0.86,1.21,0.73
		c0.54-0.13,0.86-0.68,0.73-1.21c-1.92-7.64-1.92-15.72,0-23.36c0.14-0.53-0.19-1.08-0.73-1.21c-0.54-0.13-1.08,0.19-1.21,0.73
		c-1,3.98-1.5,8.07-1.5,12.16S239.51,158.19,240.5,162.16z M248.43,160.86c0.14,0.53,0.69,0.85,1.22,0.71
		c0.53-0.14,0.85-0.69,0.71-1.22c-1.81-6.75-1.81-13.93,0-20.68c0.14-0.53-0.17-1.08-0.71-1.22c-0.53-0.14-1.08,0.17-1.22,0.71
		c-0.95,3.54-1.43,7.2-1.43,10.86S247.48,157.31,248.43,160.86z M256.38,159.56c0.16,0.53,0.71,0.83,1.24,0.68
		c0.53-0.16,0.83-0.71,0.68-1.24c-1.72-5.86-1.72-12.13,0-17.99c0.16-0.53-0.15-1.09-0.68-1.24c-0.53-0.16-1.09,0.15-1.24,0.68
		c-0.91,3.11-1.38,6.33-1.38,9.56S255.46,156.45,256.38,159.56z M264.36,158.27c0.18,0.52,0.74,0.8,1.27,0.63s0.81-0.74,0.63-1.27
		c-1.66-4.93-1.66-10.33,0-15.26c0.18-0.53-0.11-1.09-0.63-1.27c-0.52-0.18-1.09,0.11-1.27,0.63c-0.9,2.67-1.36,5.46-1.36,8.27
		S263.46,155.59,264.36,158.27z M272.42,157c0.22,0.51,0.8,0.75,1.31,0.53c0.51-0.22,0.74-0.81,0.53-1.31
		c-1.67-3.94-1.67-8.5,0-12.44c0.21-0.5-0.02-1.09-0.53-1.31c-0.51-0.21-1.1,0.02-1.31,0.53c-0.94,2.22-1.42,4.57-1.42,7
		S271.48,154.78,272.42,157z M280.61,155.8c0.32,0.45,0.95,0.55,1.4,0.23c0.45-0.32,0.55-0.95,0.23-1.39
		c-1.95-2.73-1.95-6.55,0-9.28c0.32-0.45,0.22-1.08-0.23-1.39c-0.45-0.32-1.07-0.22-1.4,0.23c-1.22,1.71-1.86,3.71-1.86,5.8
		S279.39,154.09,280.61,155.8z M151,150c0-0.55-0.45-1-1-1s-1,0.45-1,1s0.45,1,1,1S151,150.55,151,150z"/>
	
		<linearGradient id="SVGID_6_" gradientUnits="userSpaceOnUse" x1="-411.8386" y1="-39.81" x2="-411.8386" y2="77.9403" gradientTransform="matrix(0.866 0.5 -0.5 0.866 557.2576 268.2862)">
		<stop  offset="0" style="stop-color:#44D62C"/>
		<stop id="stopB" offset="0.09" style="stop-color:#44D62C;stop-opacity:0"/>
		<animate id="stopB1" xlink:href="#stopB" attributeName="offset" from="0.09" to="1" dur="1s" begin="0.34s;stopB2.end+0.2s" fill="freeze"/>
		<animate id="stopB2" xlink:href="#stopB" attributeName="offset" from="1" to="0.09" dur="1s" begin="stopB1.end+0.2s" fill="freeze" />
	</linearGradient>
	<path class="st11" d="M224.15,30.57c-1.24,2.15-3.99,2.89-6.15,1.65c-2.15-1.24-2.89-3.99-1.65-6.15c1.24-2.15,3.99-2.89,6.15-1.65
		C224.65,25.67,225.39,28.42,224.15,30.57z M183.25,137.72c0.52,0.18,1.09-0.11,1.27-0.63s-0.1-1.09-0.63-1.27
		c-14.11-4.73-27.4-12.41-38.56-22.26c-0.41-0.37-1.05-0.33-1.41,0.09c-0.37,0.41-0.33,1.05,0.09,1.41
		c5.68,5.01,11.9,9.48,18.49,13.29S176.08,135.31,183.25,137.72z M186.06,130.22c0.52,0.17,1.09-0.11,1.26-0.63
		c0.17-0.52-0.1-1.09-0.63-1.26c-13.27-4.41-25.82-11.66-36.27-20.94c-0.42-0.37-1.05-0.33-1.41,0.08
		c-0.37,0.41-0.33,1.05,0.08,1.41c5.33,4.73,11.19,8.95,17.41,12.54S179.3,127.97,186.06,130.22z M188.88,122.72
		c0.52,0.17,1.09-0.11,1.26-0.64c0.17-0.52-0.12-1.09-0.64-1.26c-12.47-4.1-24.2-10.88-33.99-19.62c-0.42-0.37-1.04-0.33-1.41,0.08
		c-0.37,0.41-0.33,1.04,0.08,1.41c5,4.46,10.49,8.43,16.32,11.8S182.51,120.63,188.88,122.72z M191.69,115.22
		c0.53,0.17,1.09-0.12,1.26-0.64c0.17-0.53-0.11-1.09-0.64-1.26c-11.66-3.79-22.58-10.1-31.7-18.3c-0.41-0.37-1.04-0.33-1.41,0.07
		c-0.37,0.41-0.34,1.04,0.07,1.41c4.66,4.2,9.79,7.92,15.23,11.06S185.73,113.28,191.69,115.22z M194.51,107.71
		c0.53,0.17,1.09-0.12,1.26-0.65c0.17-0.53-0.12-1.09-0.65-1.26c-10.91-3.49-20.93-9.28-29.41-16.98c-0.41-0.37-1.04-0.34-1.41,0.07
		c-0.37,0.41-0.34,1.04,0.07,1.41c4.35,3.95,9.1,7.42,14.13,10.33S188.92,105.92,194.51,107.71z M197.33,100.21
		c0.53,0.17,1.09-0.13,1.25-0.65c0.16-0.53-0.13-1.09-0.65-1.25c-10.1-3.17-19.31-8.49-27.12-15.66c-0.41-0.37-1.04-0.35-1.41,0.06
		c-0.37,0.41-0.35,1.04,0.06,1.41c4.01,3.68,8.4,6.91,13.04,9.59S192.13,98.58,197.33,100.21z M200.14,92.71
		c0.53,0.16,1.09-0.13,1.25-0.66c0.16-0.53-0.14-1.09-0.66-1.25c-9.28-2.85-17.71-7.72-24.82-14.33c-0.4-0.37-1.04-0.35-1.41,0.05
		c-0.38,0.4-0.35,1.04,0.05,1.41c3.66,3.41,7.69,6.39,11.95,8.85S195.36,91.24,200.14,92.71z M202.96,85.21
		c0.53,0.16,1.09-0.14,1.24-0.67c0.16-0.53-0.14-1.08-0.67-1.24c-8.44-2.51-16.13-6.95-22.53-13.01c-0.4-0.37-1.03-0.36-1.41,0.04
		c-0.38,0.4-0.36,1.03,0.04,1.41c3.31,3.13,6.97,5.86,10.87,8.12S198.59,83.9,202.96,85.21z M205.79,77.7
		c0.53,0.15,1.08-0.16,1.24-0.69c0.15-0.53-0.16-1.09-0.69-1.24c-7.57-2.16-14.57-6.2-20.23-11.68c-0.39-0.38-1.03-0.38-1.41,0.02
		c-0.38,0.4-0.37,1.03,0.02,1.41c2.94,2.85,6.24,5.34,9.78,7.38S201.84,76.58,205.79,77.7z M208.62,70.19
		c0.53,0.14,1.08-0.17,1.22-0.71c0.14-0.53-0.17-1.08-0.71-1.22c-6.75-1.81-12.97-5.4-17.91-10.34c-0.39-0.39-1.02-0.39-1.41,0
		c-0.39,0.39-0.39,1.02,0,1.41c2.59,2.6,5.52,4.84,8.69,6.67S205.08,69.24,208.62,70.19z M211.47,62.65
		c0.54,0.13,1.08-0.2,1.21-0.74c0.13-0.54-0.2-1.08-0.74-1.21c-5.94-1.44-11.37-4.58-15.58-9c-0.38-0.4-1.01-0.41-1.41-0.03
		c-0.4,0.38-0.41,1.01-0.03,1.41c2.24,2.35,4.79,4.36,7.59,5.97S208.31,61.89,211.47,62.65z M214.34,55.1
		c0.54,0.11,1.07-0.24,1.18-0.78c0.11-0.54-0.24-1.07-0.78-1.18c-5.1-1.03-9.77-3.73-13.22-7.63c-0.37-0.42-1-0.45-1.41-0.09
		c-0.41,0.37-0.45,1-0.09,1.41c1.87,2.12,4.05,3.9,6.48,5.31S211.57,54.54,214.34,55.1z M217.27,47.48
		c0.55,0.07,1.05-0.32,1.12-0.87c0.07-0.55-0.33-1.05-0.87-1.11c-4.25-0.52-8.19-2.8-10.77-6.22c-0.33-0.44-0.96-0.53-1.4-0.2
		c-0.44,0.33-0.53,0.96-0.2,1.4c1.45,1.92,3.25,3.51,5.35,4.73S214.88,47.19,217.27,47.48z M220.33,39.79
		c0.55-0.05,0.95-0.54,0.9-1.09c-0.05-0.55-0.54-0.95-1.09-0.9c-3.34,0.32-6.65-1.58-8.04-4.64c-0.23-0.5-0.82-0.72-1.32-0.5
		c-0.5,0.23-0.72,0.82-0.5,1.32c0.87,1.91,2.28,3.47,4.09,4.51S218.24,39.99,220.33,39.79z M150.5,149.13
		c-0.48-0.28-1.09-0.11-1.37,0.37s-0.11,1.09,0.37,1.37s1.09,0.11,1.37-0.37S150.98,149.41,150.5,149.13z"/>
	
		<linearGradient id="SVGID_7_" gradientUnits="userSpaceOnUse" x1="-1056.1615" y1="1733.8101" x2="-1056.1615" y2="1851.5603" gradientTransform="matrix(-0.866 0.5 -0.5 -0.866 172.7424 2301.7139)">
		<stop  offset="0" style="stop-color:#44D62C"/>
		<stop id="stopD" offset="0.09" style="stop-color:#44D62C;stop-opacity:0"/>
		<animate id="stopD1" xlink:href="#stopD" attributeName="offset" from="0.09" to="1" dur="1s" begin="1.02s;stopD2.end+0.2s" fill="freeze"/>
		<animate id="stopD2" xlink:href="#stopD" attributeName="offset" from="1" to="0.09" dur="1s" begin="stopD1.end+0.2s" fill="freeze" />
	</linearGradient>
	<path class="st12" d="M216.35,273.93c-1.24-2.15-0.51-4.9,1.65-6.15s4.9-0.51,6.15,1.65c1.24,2.15,0.51,4.9-1.65,6.15
		C220.35,276.82,217.6,276.08,216.35,273.93z M144.01,184.94c-0.41,0.37-0.45,1-0.09,1.41s1,0.46,1.41,0.09
		c11.15-9.85,24.45-17.53,38.56-22.26c0.52-0.17,0.81-0.74,0.63-1.27c-0.18-0.52-0.74-0.81-1.27-0.63
		c-7.18,2.41-14.16,5.56-20.75,9.37S149.69,179.93,144.01,184.94z M149.09,191.12c-0.41,0.37-0.45,1-0.08,1.41
		c0.37,0.41,0.99,0.45,1.41,0.08c10.46-9.28,23-16.53,36.27-20.94c0.53-0.18,0.81-0.74,0.63-1.26c-0.17-0.52-0.74-0.81-1.26-0.63
		c-6.76,2.25-13.35,5.21-19.56,8.8S154.42,186.39,149.09,191.12z M154.18,197.31c-0.41,0.37-0.45,1-0.08,1.41
		c0.37,0.41,1,0.44,1.41,0.08c9.79-8.75,21.52-15.52,33.99-19.62c0.53-0.18,0.81-0.74,0.64-1.26c-0.17-0.52-0.74-0.81-1.26-0.64
		c-6.36,2.09-12.55,4.86-18.38,8.23S159.18,192.84,154.18,197.31z M159.27,203.49c-0.41,0.37-0.44,1-0.07,1.41
		c0.37,0.41,1,0.45,1.41,0.07c9.12-8.2,20.04-14.51,31.7-18.3c0.53-0.17,0.81-0.74,0.64-1.26c-0.17-0.52-0.74-0.81-1.26-0.64
		c-5.96,1.94-11.75,4.52-17.19,7.66S163.93,199.3,159.27,203.49z M164.37,209.69c-0.41,0.37-0.44,1-0.07,1.41
		c0.37,0.41,1.01,0.44,1.41,0.07c8.48-7.7,18.5-13.49,29.41-16.98c0.52-0.17,0.82-0.73,0.65-1.26c-0.17-0.53-0.73-0.82-1.26-0.65
		c-5.59,1.79-10.98,4.17-16.01,7.08S168.71,205.74,164.37,209.69z M169.46,215.88c-0.41,0.37-0.43,1.01-0.06,1.41
		c0.37,0.41,1.01,0.43,1.41,0.06c7.8-7.16,17.01-12.48,27.12-15.66c0.52-0.17,0.82-0.73,0.65-1.25c-0.17-0.53-0.73-0.82-1.25-0.65
		c-5.19,1.63-10.18,3.82-14.83,6.5S173.47,212.2,169.46,215.88z M174.55,222.07c-0.4,0.38-0.43,1.01-0.05,1.41
		c0.38,0.4,1.01,0.42,1.41,0.05c7.11-6.62,15.54-11.48,24.82-14.33c0.52-0.16,0.82-0.72,0.66-1.25s-0.72-0.82-1.25-0.66
		c-4.78,1.47-9.38,3.46-13.64,5.93S178.21,218.66,174.55,222.07z M179.63,228.27c-0.4,0.38-0.42,1.01-0.04,1.41
		c0.38,0.4,1.01,0.42,1.41,0.04c6.39-6.05,14.09-10.49,22.53-13.01c0.52-0.16,0.83-0.71,0.67-1.24c-0.16-0.53-0.71-0.83-1.24-0.67
		c-4.37,1.3-8.56,3.1-12.46,5.35S182.94,225.13,179.63,228.27z M184.72,234.46c-0.4,0.38-0.41,1.02-0.02,1.41
		c0.38,0.4,1.02,0.4,1.41,0.02c5.66-5.48,12.66-9.52,20.23-11.68c0.53-0.15,0.84-0.7,0.69-1.24c-0.15-0.53-0.7-0.84-1.24-0.69
		c-3.94,1.12-7.74,2.73-11.29,4.78S187.66,231.61,184.72,234.46z M189.81,240.67c-0.39,0.39-0.39,1.02,0,1.41
		c0.39,0.39,1.02,0.39,1.41,0c4.94-4.94,11.16-8.53,17.91-10.34c0.53-0.14,0.85-0.69,0.71-1.22c-0.14-0.53-0.69-0.85-1.22-0.71
		c-3.55,0.95-6.95,2.36-10.12,4.19S192.41,238.08,189.81,240.67z M194.91,246.9c-0.38,0.4-0.37,1.03,0.03,1.41
		c0.4,0.38,1.03,0.37,1.41-0.03c4.22-4.42,9.65-7.55,15.58-9c0.54-0.13,0.87-0.67,0.74-1.21c-0.13-0.54-0.67-0.87-1.21-0.74
		c-3.15,0.77-6.17,1.97-8.97,3.59S197.15,244.56,194.91,246.9z M200.02,253.17c-0.37,0.41-0.33,1.05,0.09,1.41
		c0.41,0.37,1.04,0.33,1.41-0.09c3.44-3.9,8.11-6.6,13.22-7.63c0.55-0.11,0.89-0.64,0.78-1.18c-0.11-0.54-0.64-0.89-1.18-0.78
		c-2.77,0.56-5.4,1.55-7.84,2.96S201.88,251.05,200.02,253.17z M205.15,259.52c-0.33,0.44-0.25,1.07,0.2,1.4
		c0.44,0.33,1.07,0.24,1.4-0.2c2.58-3.42,6.52-5.7,10.77-6.22c0.54-0.07,0.94-0.57,0.87-1.11c-0.07-0.55-0.57-0.94-1.12-0.87
		c-2.39,0.3-4.67,1.06-6.77,2.27C208.4,256,206.6,257.59,205.15,259.52z M210.28,266.02c-0.23,0.5-0.01,1.1,0.5,1.32
		c0.5,0.23,1.1,0.01,1.32-0.5c1.39-3.06,4.69-4.96,8.04-4.64c0.55,0.05,1.04-0.35,1.09-0.9c0.05-0.55-0.35-1.04-0.9-1.09
		c-2.09-0.2-4.15,0.24-5.96,1.29S211.15,264.11,210.28,266.02z M150.5,150.87c0.48-0.28,0.64-0.89,0.37-1.37s-0.89-0.64-1.37-0.37
		s-0.64,0.89-0.37,1.37S150.02,151.14,150.5,150.87z"/>
	
		<linearGradient id="SVGID_8_" gradientUnits="userSpaceOnUse" x1="-32.1614" y1="2105.8101" x2="-32.1614" y2="2223.5603" gradientTransform="matrix(-0.866 -0.5 0.5 -0.866 -1001.2576 2079.7139)">
		<stop  offset="0" style="stop-color:#44D62C"/>
		<stop id="stopE" offset="0.09" style="stop-color:#44D62C;stop-opacity:0"/>
		<animate id="stopE1" xlink:href="#stopE" attributeName="offset" from="0.09" to="1" dur="1s" begin="1.36s;stopE2.end+0.2s" fill="freeze"/>
		<animate id="stopE2" xlink:href="#stopE" attributeName="offset" from="1" to="0.09" dur="1s" begin="stopE1.end+0.2s" fill="freeze" />
	</linearGradient>
	<path class="st13" d="M75.85,269.43c1.24-2.15,3.99-2.89,6.15-1.65s2.89,3.99,1.65,6.15c-1.24,2.15-3.99,2.89-6.15,1.65
		C75.35,274.33,74.61,271.58,75.85,269.43z M116.75,162.28c-0.52-0.18-1.09,0.11-1.27,0.63c-0.18,0.52,0.1,1.09,0.63,1.27
		c14.11,4.73,27.4,12.41,38.56,22.26c0.41,0.37,1.05,0.33,1.41-0.09c0.37-0.41,0.33-1.05-0.09-1.41
		c-5.68-5.01-11.9-9.48-18.49-13.29S123.92,164.69,116.75,162.28z M113.94,169.78c-0.52-0.17-1.09,0.11-1.26,0.63
		c-0.17,0.52,0.1,1.09,0.63,1.26c13.27,4.41,25.82,11.66,36.27,20.94c0.42,0.37,1.05,0.33,1.41-0.08c0.37-0.41,0.33-1.05-0.08-1.41
		c-5.33-4.73-11.19-8.95-17.41-12.54S120.7,172.03,113.94,169.78z M111.12,177.28c-0.52-0.17-1.09,0.11-1.26,0.64
		c-0.17,0.52,0.12,1.09,0.64,1.26c12.47,4.1,24.2,10.88,33.99,19.62c0.42,0.37,1.04,0.33,1.41-0.08c0.37-0.41,0.33-1.04-0.08-1.41
		c-5-4.46-10.49-8.43-16.32-11.8C123.67,182.14,117.49,179.37,111.12,177.28z M108.31,184.78c-0.53-0.17-1.09,0.12-1.26,0.64
		c-0.17,0.53,0.11,1.09,0.64,1.26c11.66,3.79,22.58,10.1,31.7,18.3c0.41,0.37,1.04,0.33,1.41-0.07c0.37-0.41,0.34-1.04-0.07-1.41
		c-4.66-4.2-9.79-7.92-15.23-11.06C120.06,189.29,114.27,186.72,108.31,184.78z M105.49,192.29c-0.53-0.17-1.09,0.12-1.26,0.65
		c-0.17,0.53,0.12,1.09,0.65,1.26c10.91,3.49,20.93,9.28,29.41,16.98c0.41,0.37,1.04,0.34,1.41-0.07c0.37-0.41,0.34-1.04-0.07-1.41
		c-4.35-3.95-9.1-7.42-14.13-10.33S111.08,194.08,105.49,192.29z M102.67,199.79c-0.53-0.17-1.09,0.13-1.25,0.65
		c-0.16,0.53,0.13,1.09,0.65,1.25c10.1,3.17,19.31,8.49,27.12,15.66c0.41,0.37,1.04,0.35,1.41-0.06c0.37-0.41,0.35-1.04-0.06-1.41
		c-4.01-3.68-8.4-6.91-13.04-9.59S107.87,201.42,102.67,199.79z M99.86,207.29c-0.53-0.16-1.09,0.13-1.25,0.66
		c-0.16,0.53,0.14,1.09,0.66,1.25c9.28,2.85,17.71,7.72,24.82,14.33c0.4,0.37,1.04,0.35,1.41-0.05c0.38-0.4,0.35-1.04-0.05-1.41
		c-3.66-3.41-7.69-6.39-11.95-8.85S104.64,208.76,99.86,207.29z M97.04,214.79c-0.53-0.16-1.09,0.14-1.24,0.67
		c-0.16,0.53,0.14,1.08,0.67,1.24c8.44,2.51,16.13,6.95,22.53,13.01c0.4,0.37,1.03,0.36,1.41-0.04c0.38-0.4,0.36-1.03-0.04-1.41
		c-3.31-3.13-6.97-5.86-10.87-8.12S101.41,216.1,97.04,214.79z M94.21,222.3c-0.53-0.15-1.08,0.16-1.24,0.69
		c-0.15,0.53,0.16,1.09,0.69,1.24c7.57,2.16,14.57,6.2,20.23,11.68c0.39,0.38,1.03,0.38,1.41-0.02c0.38-0.4,0.37-1.03-0.02-1.41
		c-2.94-2.85-6.24-5.34-9.78-7.38S98.16,223.42,94.21,222.3z M91.38,229.81c-0.53-0.14-1.08,0.17-1.22,0.71
		c-0.14,0.53,0.17,1.08,0.71,1.22c6.75,1.81,12.97,5.4,17.91,10.34c0.39,0.39,1.02,0.39,1.41,0c0.39-0.39,0.39-1.02,0-1.41
		c-2.59-2.6-5.52-4.84-8.69-6.67S94.92,230.76,91.38,229.81z M88.53,237.35c-0.54-0.13-1.08,0.2-1.21,0.74
		c-0.13,0.54,0.2,1.08,0.74,1.21c5.94,1.44,11.37,4.58,15.58,9c0.38,0.4,1.01,0.41,1.41,0.03c0.4-0.38,0.41-1.01,0.03-1.41
		c-2.24-2.35-4.79-4.36-7.59-5.97S91.69,238.11,88.53,237.35z M85.66,244.9c-0.54-0.11-1.07,0.24-1.18,0.78s0.24,1.07,0.78,1.18
		c5.1,1.03,9.77,3.73,13.22,7.63c0.37,0.42,1,0.45,1.41,0.09c0.41-0.37,0.45-1,0.09-1.41c-1.87-2.12-4.05-3.9-6.48-5.31
		S88.43,245.46,85.66,244.9z M82.73,252.52c-0.55-0.07-1.05,0.32-1.12,0.87c-0.07,0.55,0.33,1.05,0.87,1.11
		c4.25,0.52,8.19,2.8,10.77,6.22c0.33,0.44,0.96,0.53,1.4,0.2c0.44-0.33,0.53-0.96,0.2-1.4c-1.45-1.92-3.25-3.51-5.35-4.73
		C87.4,253.58,85.12,252.81,82.73,252.52z M79.67,260.21c-0.55,0.05-0.95,0.54-0.9,1.09c0.05,0.55,0.54,0.95,1.09,0.9
		c3.34-0.32,6.65,1.58,8.04,4.64c0.23,0.5,0.82,0.72,1.32,0.5c0.5-0.23,0.72-0.82,0.5-1.32c-0.87-1.91-2.28-3.47-4.09-4.51
		S81.76,260.01,79.67,260.21z M149.5,150.87c0.48,0.28,1.09,0.11,1.37-0.37s0.11-1.09-0.37-1.37s-1.09-0.11-1.37,0.37
		S149.02,150.59,149.5,150.87z"/>
	
		<linearGradient id="SVGID_9_" gradientUnits="userSpaceOnUse" x1="802" y1="1405" x2="802" y2="1522.7502" gradientTransform="matrix(4.489700e-11 -1 1 4.489700e-11 -1396 952)">
		<stop  offset="0" style="stop-color:#44D62C"/>
		<stop id="stopF" offset="0.09" style="stop-color:#44D62C;stop-opacity:0"/>
		<animate id="stopF1" xlink:href="#stopF" attributeName="offset" from="0.09" to="1" dur="1s" begin="1.7s;stopF2.end+0.2s" fill="freeze"/>
		<animate id="stopF2" xlink:href="#stopF" attributeName="offset" from="1" to="0.09" dur="1s" begin="stopF1.end+0.2s" fill="freeze" />
	</linearGradient>
	<path class="st14" d="M9.5,145.5c2.49,0,4.5,2.01,4.5,4.5s-2.01,4.5-4.5,4.5S5,152.49,5,150S7.01,145.5,9.5,145.5z M122.73,127.34
		c-0.11-0.54-0.64-0.89-1.18-0.78s-0.89,0.64-0.78,1.18c2.95,14.58,2.95,29.94,0,44.52c-0.11,0.54,0.24,1.07,0.78,1.18
		c0.54,0.11,1.07-0.24,1.18-0.78c1.5-7.42,2.27-15.04,2.27-22.66S124.24,134.76,122.73,127.34z M114.84,128.66
		c-0.11-0.54-0.64-0.89-1.18-0.78c-0.54,0.11-0.89,0.63-0.78,1.18c2.81,13.7,2.81,28.19,0,41.88c-0.11,0.55,0.24,1.07,0.78,1.18
		c0.54,0.11,1.07-0.24,1.18-0.78c1.43-6.98,2.16-14.16,2.16-21.34S116.27,135.64,114.84,128.66z M106.94,129.97
		c-0.11-0.54-0.64-0.89-1.18-0.77c-0.54,0.11-0.89,0.65-0.77,1.18c2.68,12.85,2.68,26.39,0,39.24c-0.11,0.55,0.23,1.07,0.77,1.18
		c0.54,0.11,1.07-0.23,1.18-0.77c1.37-6.56,2.06-13.3,2.06-20.03S108.31,136.53,106.94,129.97z M99.04,131.28
		c-0.11-0.54-0.65-0.88-1.19-0.77c-0.54,0.12-0.89,0.64-0.77,1.19c2.55,12,2.55,24.61,0,36.6c-0.12,0.54,0.23,1.07,0.77,1.19
		c0.54,0.11,1.07-0.23,1.19-0.77c1.3-6.13,1.96-12.43,1.96-18.72S100.34,137.42,99.04,131.28z M91.12,132.6
		c-0.12-0.54-0.65-0.88-1.19-0.77c-0.54,0.12-0.88,0.65-0.77,1.19c2.43,11.2,2.43,22.76,0,33.96c-0.12,0.54,0.23,1.07,0.77,1.19
		c0.54,0.12,1.07-0.23,1.19-0.77C92.37,161.67,93,155.81,93,150S92.37,138.33,91.12,132.6z M83.22,133.91
		c-0.12-0.54-0.65-0.88-1.19-0.76c-0.54,0.12-0.88,0.66-0.76,1.19c2.3,10.34,2.3,20.97,0,31.31c-0.12,0.54,0.22,1.07,0.76,1.19
		c0.54,0.12,1.07-0.22,1.19-0.76C84.4,160.78,85,155.37,85,150S84.4,139.22,83.22,133.91z M75.31,135.22
		c-0.12-0.54-0.66-0.88-1.2-0.75c-0.54,0.12-0.87,0.66-0.75,1.2c2.17,9.46,2.17,19.2,0,28.66c-0.12,0.54,0.21,1.07,0.75,1.2
		s1.08-0.21,1.2-0.75C76.43,159.9,77,154.93,77,150S76.43,140.1,75.31,135.22z M67.4,136.53c-0.13-0.54-0.67-0.87-1.21-0.74
		s-0.86,0.67-0.74,1.21c2.04,8.56,2.04,17.45,0,26.01c-0.12,0.53,0.2,1.08,0.74,1.21c0.54,0.13,1.08-0.2,1.21-0.74
		c1.06-4.43,1.6-8.97,1.6-13.47S68.46,140.96,67.4,136.53z M59.5,137.84c-0.13-0.54-0.68-0.86-1.21-0.73
		c-0.54,0.13-0.86,0.68-0.73,1.21c1.92,7.64,1.92,15.72,0,23.36c-0.14,0.53,0.19,1.08,0.73,1.21c0.54,0.13,1.08-0.19,1.21-0.73
		c1-3.98,1.5-8.07,1.5-12.16S60.49,141.81,59.5,137.84z M51.57,139.14c-0.14-0.53-0.69-0.85-1.22-0.71
		c-0.53,0.14-0.85,0.69-0.71,1.22c1.81,6.75,1.81,13.93,0,20.68c-0.14,0.53,0.17,1.08,0.71,1.22c0.53,0.14,1.08-0.17,1.22-0.71
		c0.95-3.54,1.43-7.2,1.43-10.86S52.52,142.69,51.57,139.14z M43.62,140.44c-0.16-0.53-0.71-0.83-1.24-0.68
		c-0.53,0.16-0.83,0.71-0.68,1.24c1.72,5.86,1.72,12.13,0,17.99c-0.16,0.53,0.15,1.09,0.68,1.24c0.53,0.16,1.09-0.15,1.24-0.68
		c0.91-3.11,1.38-6.33,1.38-9.56S44.54,143.55,43.62,140.44z M35.64,141.73c-0.18-0.52-0.74-0.8-1.27-0.63s-0.81,0.74-0.63,1.27
		c1.66,4.93,1.66,10.33,0,15.26c-0.18,0.53,0.11,1.09,0.63,1.27c0.52,0.18,1.09-0.11,1.27-0.63c0.9-2.67,1.36-5.46,1.36-8.27
		S36.54,144.41,35.64,141.73z M27.58,143c-0.22-0.51-0.8-0.75-1.31-0.53c-0.51,0.22-0.74,0.81-0.53,1.31c1.67,3.94,1.67,8.5,0,12.44
		c-0.21,0.5,0.02,1.09,0.53,1.31c0.51,0.21,1.1-0.02,1.31-0.53c0.94-2.22,1.42-4.57,1.42-7S28.52,145.22,27.58,143z M19.39,144.2
		c-0.32-0.45-0.95-0.55-1.4-0.23c-0.45,0.32-0.55,0.95-0.23,1.39c1.95,2.73,1.95,6.55,0,9.28c-0.32,0.45-0.22,1.08,0.23,1.39
		c0.45,0.32,1.07,0.22,1.4-0.23c1.22-1.71,1.86-3.71,1.86-5.8S20.61,145.91,19.39,144.2z M149,150c0,0.55,0.45,1,1,1s1-0.45,1-1
		s-0.45-1-1-1S149,149.45,149,150z"/>
	
		<linearGradient id="SVGID_10_" gradientUnits="userSpaceOnUse" x1="612.1614" y1="332.19" x2="612.1614" y2="449.9402" gradientTransform="matrix(0.866 -0.5 0.5 0.866 -616.7424 46.2862)">
		<stop  offset="0" style="stop-color:#44D62C"/>
		<stop id="stopG" offset="0.09" style="stop-color:#44D62C;stop-opacity:0"/>
		<animate id="stopG1" xlink:href="#stopG" attributeName="offset" from="0.09" to="1" dur="1s" begin="2.04s;stopG2.end+0.2s" fill="freeze"/>
		<animate id="stopG2" xlink:href="#stopG" attributeName="offset" from="1" to="0.09" dur="1s" begin="stopG1.end+0.2s" fill="freeze" />
	</linearGradient>
	<path class="st15" d="M83.65,26.07c1.24,2.15,0.51,4.9-1.65,6.15c-2.15,1.24-4.9,0.51-6.15-1.65c-1.24-2.15-0.51-4.9,1.65-6.15
		C79.65,23.18,82.4,23.92,83.65,26.07z M155.99,115.06c0.41-0.37,0.45-1,0.09-1.41c-0.37-0.41-1-0.46-1.41-0.09
		c-11.15,9.85-24.45,17.53-38.56,22.26c-0.52,0.17-0.81,0.74-0.63,1.27c0.18,0.52,0.74,0.81,1.27,0.63
		c7.18-2.41,14.16-5.56,20.75-9.37S150.31,120.07,155.99,115.06z M150.91,108.88c0.41-0.37,0.45-1,0.08-1.41
		c-0.37-0.41-0.99-0.45-1.41-0.08c-10.46,9.28-23,16.53-36.27,20.94c-0.53,0.18-0.81,0.74-0.63,1.26c0.17,0.52,0.74,0.81,1.26,0.63
		c6.76-2.25,13.35-5.21,19.56-8.8S145.58,113.61,150.91,108.88z M145.82,102.69c0.41-0.37,0.45-1,0.08-1.41
		c-0.37-0.41-1-0.44-1.41-0.08c-9.79,8.75-21.52,15.52-33.99,19.62c-0.53,0.18-0.81,0.74-0.64,1.26c0.17,0.52,0.74,0.81,1.26,0.64
		c6.36-2.09,12.55-4.86,18.38-8.23C135.33,111.13,140.82,107.16,145.82,102.69z M140.73,96.51c0.41-0.37,0.44-1,0.07-1.41
		c-0.37-0.41-1-0.45-1.41-0.07c-9.12,8.2-20.04,14.51-31.7,18.3c-0.53,0.17-0.81,0.74-0.64,1.26c0.17,0.52,0.73,0.81,1.26,0.64
		c5.96-1.94,11.75-4.52,17.19-7.66C130.94,104.42,136.07,100.7,140.73,96.51z M135.63,90.31c0.41-0.37,0.44-1,0.07-1.41
		c-0.37-0.41-1.01-0.44-1.41-0.07c-8.48,7.7-18.5,13.49-29.41,16.98c-0.52,0.17-0.82,0.73-0.65,1.26c0.17,0.53,0.73,0.82,1.26,0.65
		c5.59-1.79,10.98-4.17,16.01-7.08S131.29,94.26,135.63,90.31z M130.54,84.12c0.41-0.37,0.43-1.01,0.06-1.41
		c-0.37-0.41-1.01-0.43-1.41-0.06c-7.8,7.16-17.01,12.48-27.12,15.66c-0.52,0.17-0.82,0.73-0.65,1.25c0.17,0.53,0.73,0.82,1.25,0.65
		c5.19-1.63,10.18-3.82,14.83-6.5S126.53,87.8,130.54,84.12z M125.45,77.93c0.4-0.38,0.43-1.01,0.05-1.41
		c-0.38-0.4-1.01-0.42-1.41-0.05c-7.11,6.62-15.54,11.48-24.82,14.33c-0.52,0.16-0.82,0.72-0.66,1.25c0.16,0.53,0.72,0.82,1.25,0.66
		c4.78-1.47,9.38-3.46,13.64-5.93S121.79,81.34,125.45,77.93z M120.37,71.73c0.4-0.38,0.42-1.01,0.04-1.41
		c-0.38-0.4-1.01-0.42-1.41-0.04c-6.39,6.05-14.09,10.49-22.53,13.01c-0.52,0.16-0.83,0.71-0.67,1.24c0.16,0.53,0.71,0.83,1.24,0.67
		c4.37-1.3,8.56-3.1,12.46-5.35S117.06,74.87,120.37,71.73z M115.28,65.54c0.4-0.38,0.41-1.02,0.02-1.41
		c-0.38-0.4-1.02-0.4-1.41-0.02c-5.66,5.48-12.66,9.52-20.23,11.68c-0.53,0.15-0.84,0.7-0.69,1.24c0.15,0.53,0.7,0.84,1.24,0.69
		c3.94-1.12,7.74-2.73,11.29-4.78S112.34,68.39,115.28,65.54z M110.19,59.33c0.39-0.39,0.39-1.02,0-1.41
		c-0.39-0.39-1.02-0.39-1.41,0c-4.94,4.94-11.16,8.53-17.91,10.34c-0.53,0.14-0.85,0.69-0.71,1.22c0.14,0.53,0.69,0.85,1.22,0.71
		c3.55-0.95,6.95-2.36,10.12-4.19S107.59,61.92,110.19,59.33z M105.09,53.1c0.38-0.4,0.37-1.03-0.03-1.41
		c-0.4-0.38-1.03-0.37-1.41,0.03c-4.22,4.42-9.65,7.55-15.58,9c-0.54,0.13-0.87,0.67-0.74,1.21c0.13,0.54,0.67,0.87,1.21,0.74
		c3.15-0.77,6.17-1.97,8.97-3.59S102.85,55.44,105.09,53.1z M99.98,46.83c0.37-0.41,0.33-1.05-0.09-1.41
		c-0.41-0.37-1.04-0.33-1.41,0.09c-3.44,3.9-8.11,6.6-13.22,7.63c-0.55,0.11-0.89,0.64-0.78,1.18c0.11,0.54,0.64,0.89,1.18,0.78
		c2.77-0.56,5.4-1.55,7.84-2.96S98.12,48.95,99.98,46.83z M94.85,40.48c0.33-0.44,0.25-1.07-0.2-1.4c-0.44-0.33-1.07-0.24-1.4,0.2
		c-2.58,3.42-6.52,5.7-10.77,6.22c-0.54,0.07-0.94,0.57-0.87,1.11c0.07,0.55,0.57,0.94,1.12,0.87c2.39-0.3,4.67-1.06,6.77-2.27
		S93.4,42.41,94.85,40.48z M89.72,33.98c0.23-0.5,0.01-1.1-0.5-1.32c-0.5-0.23-1.1-0.01-1.32,0.5c-1.39,3.06-4.69,4.96-8.04,4.64
		c-0.55-0.05-1.04,0.35-1.09,0.9c-0.05,0.55,0.35,1.04,0.9,1.09c2.09,0.2,4.15-0.24,5.96-1.29S88.85,35.89,89.72,33.98z
		 M149.5,149.13c-0.48,0.28-0.64,0.89-0.37,1.37s0.89,0.64,1.37,0.37s0.64-0.89,0.37-1.37S149.98,148.86,149.5,149.13z"/>
</g>
<g id="Widening">
</g>
<g id="Stereo">
</g>
</svg>
