<?xml version="1.0" encoding="utf-8"?>
<!-- Generator: Adobe Illustrator 23.0.1, SVG Export Plug-In . SVG Version: 6.00 Build 0)  -->
<svg version="1.1" xmlns="http://www.w3.org/2000/svg" xmlns:xlink="http://www.w3.org/1999/xlink" x="0px" y="0px"
	 viewBox="0 0 300 300" style="enable-background:new 0 0 300 300;" xml:space="preserve">
<style type="text/css">
	.st0{fill:url(#Background_1_);}
	.st1{opacity:0.5;fill:#44D62C;}
	.st2{fill:url(#SVGID_1_);}
	.st3{fill:url(#SVGID_2_);}
	.st4{fill:url(#SVGID_3_);}
	.st5{fill:#AAAAAA;}
	.st6{display:none;}
	.st7{display:inline;}
	.st8{fill:none;stroke:#212121;stroke-width:0.5;stroke-miterlimit:10;}
	.st9{fill:url(#SVGID_4_);}
	.st10{fill:url(#SVGID_5_);}
	.st11{fill:url(#SVGID_6_);}
	.st12{fill:url(#SVGID_7_);}
	.st13{fill:url(#SVGID_8_);}
	.st14{fill:url(#SVGID_9_);}
	.st15{fill:url(#SVGID_10_);}
	.st16{display:none;fill:url(#SVGID_11_);}
	.st17{fill:url(#Background_2_);}
	.st18{fill:url(#SVGID_12_);}
	.st19{fill:url(#SVGID_13_);}
	.st20{fill:url(#SVGID_14_);}
	.st21{fill:url(#SVGID_15_);}
	.st22{fill:url(#SVGID_16_);}
	.st23{fill:url(#Background_3_);}
	.st24{fill:url(#SVGID_17_);}
	.st25{fill:url(#SVGID_18_);}
	.st26{fill:url(#SVGID_19_);}
	.st27{fill:url(#SVGID_20_);}
	.st28{fill:url(#SVGID_21_);}
</style>
<g id="Widening">
	<path id="Background_20_" class="st1" d="M150,12c76.09,0,138,61.91,138,138s-61.91,138-138,138S12,226.09,12,150S73.91,12,150,12
		 M150,6C70.6,6,6,70.6,6,150c0,79.4,64.6,144,144,144c79.4,0,144-64.6,144-144C294,70.6,229.4,6,150,6L150,6z"/>
	<radialGradient id="Background_1_" cx="150" cy="150" r="144" gradientUnits="userSpaceOnUse">
		<stop  offset="0.5" style="stop-color:#44D62C;stop-opacity:0"/>
		<stop  offset="1" style="stop-color:#44D62C;stop-opacity:0.2"/>
	</radialGradient>
	<circle id="Background_23_" class="st0" cx="150" cy="150" r="144"/>
	<g id="Person_19_">
		<radialGradient id="SVGID_1_" cx="150" cy="155" r="29" gradientUnits="userSpaceOnUse">
			<stop  offset="0" style="stop-color:#CCCCCC"/>
			<stop  offset="1" style="stop-color:#FFFFFF;stop-opacity:0"/>
		</radialGradient>
		<circle class="st2" cx="150" cy="155" r="29"/>
		<linearGradient id="SVGID_2_" gradientUnits="userSpaceOnUse" x1="150" y1="139" x2="150" y2="171.8333">
			<stop  offset="0" style="stop-color:#D9D9D9"/>
			<stop  offset="1" style="stop-color:#A9A9A9"/>
		</linearGradient>
		<path class="st3" d="M176,156.42c0,10.92-11.64,15.42-26,15.42s-26-4.5-26-15.42c0-6.86,11.64-17.42,26-17.42
			S176,149.56,176,156.42z"/>
		<linearGradient id="SVGID_3_" gradientUnits="userSpaceOnUse" x1="150" y1="130" x2="150" y2="163.9456">
			<stop  offset="0" style="stop-color:#E6E6E6"/>
			<stop  offset="1" style="stop-color:#C6C6C6"/>
		</linearGradient>
		<path class="st4" d="M151.78,132.16c-0.33-1.11-1-2.16-1.78-2.16s-1.45,1.06-1.78,2.16C141.33,133.29,136,140.85,136,149
			c0,8.84,6.27,15,14,15s14-6.16,14-15C164,140.85,158.67,133.29,151.78,132.16z"/>
		<path class="st5" d="M167,144h-2c-1.1,0-2,0.9-2,2v1h-26v-1c0-1.1-0.9-2-2-2h-2c-1.1,0-2,0.9-2,2v8c0,1.1,0.9,2,2,2h2
			c1.1,0,2-0.9,2-2v-1h26v1c0,1.1,0.9,2,2,2h2c1.1,0,2-0.9,2-2v-8C169,144.9,168.1,144,167,144z"/>
		<g class="st6">
			<g class="st7">
				<path class="st8" d="M150,149v2 M149,150h2"/>
			</g>
		</g>
	</g>
	<linearGradient id="SVGID_4_" gradientUnits="userSpaceOnUse" x1="5" y1="149.9996" x2="125.6686" y2="149.9996">
		<stop  offset="0" style="stop-color:#44D62C"/>
		<stop id="stopleft" offset="1" style="stop-color:#44D62C;stop-opacity:0"/>
		<animate id="left1" xlink:href="#stopleft" attributeName="offset" from="1" to="0.6" dur="0.5s" begin="0s;right2.end"/>
		<animate id="left2" xlink:href="#stopleft" attributeName="offset" from="0.6" to="1" dur="0.5s" begin="right1.end" />
	</linearGradient>
	<path class="st9" d="M110.47,207c-0.15,0-0.31-0.04-0.46-0.11c-0.49-0.25-0.69-0.85-0.43-1.35c8.84-17.25,13.32-35.89,13.32-55.41
		c0-19.62-4.53-38.35-13.45-55.68c-0.25-0.49-0.06-1.09,0.43-1.35c0.49-0.25,1.09-0.06,1.35,0.43
		c9.08,17.61,13.68,36.65,13.68,56.59c0,19.84-4.55,38.79-13.54,56.32C111.19,206.8,110.84,207,110.47,207z M104.29,202.55
		c8.27-16.08,12.63-34.21,12.63-52.43c0-18.31-4.41-36.53-12.76-52.68c-0.25-0.49-0.86-0.68-1.35-0.43
		c-0.49,0.25-0.68,0.86-0.43,1.35c8.2,15.87,12.54,33.76,12.54,51.76c0,18.15-4.18,35.49-12.41,51.51
		c-0.25,0.49-0.06,1.09,0.43,1.35c0.15,0.08,0.3,0.11,0.46,0.11C103.77,203.09,104.12,202.89,104.29,202.55z M97.22,198.64
		c7.68-14.88,11.73-31.66,11.73-48.53c0-16.96-4.1-33.82-11.85-48.76c-0.25-0.49-0.86-0.68-1.35-0.43
		c-0.49,0.25-0.68,0.86-0.43,1.35c7.61,14.65,11.63,31.2,11.63,47.84c0,16.56-3.98,33.02-11.51,47.61
		c-0.25,0.49-0.06,1.09,0.43,1.35c0.15,0.08,0.3,0.11,0.46,0.11C96.69,199.19,97.04,198.99,97.22,198.64z M90.15,194.74
		c7.09-13.67,10.83-29.11,10.83-44.64c0-15.61-3.78-31.12-10.94-44.84c-0.25-0.49-0.86-0.68-1.35-0.42
		c-0.49,0.25-0.68,0.86-0.42,1.35c7.01,13.44,10.71,28.63,10.71,43.92c0,15.21-3.67,30.33-10.61,43.72
		c-0.25,0.49-0.06,1.09,0.43,1.35c0.15,0.08,0.3,0.11,0.46,0.11C89.62,195.28,89.97,195.08,90.15,194.74z M83.08,190.83
		c6.5-12.47,9.93-26.55,9.93-40.74c0-14.26-3.47-28.41-10.03-40.93c-0.26-0.49-0.86-0.68-1.35-0.42c-0.49,0.26-0.68,0.86-0.42,1.35
		c6.41,12.23,9.8,26.06,9.8,40c0,13.87-3.36,27.64-9.7,39.82c-0.25,0.49-0.07,1.09,0.42,1.35c0.15,0.08,0.31,0.11,0.46,0.11
		C82.55,191.37,82.9,191.18,83.08,190.83z M76.01,186.93c5.91-11.26,9.03-24,9.03-36.85c0-12.91-3.15-25.71-9.11-37.01
		c-0.26-0.49-0.86-0.67-1.35-0.42c-0.49,0.26-0.68,0.86-0.42,1.35c5.81,11.02,8.88,23.5,8.88,36.08c0,12.52-3.04,24.94-8.8,35.92
		c-0.26,0.49-0.07,1.09,0.42,1.35c0.15,0.08,0.31,0.11,0.46,0.11C75.48,187.46,75.83,187.27,76.01,186.93z M68.94,183.03
		c5.32-10.06,8.13-21.45,8.13-32.95c0-11.56-2.84-23-8.2-33.1c-0.26-0.49-0.86-0.68-1.35-0.41c-0.49,0.26-0.67,0.86-0.41,1.35
		c5.21,9.81,7.97,20.93,7.97,32.16c0,11.18-2.73,22.25-7.89,32.02c-0.26,0.49-0.07,1.09,0.42,1.35c0.15,0.08,0.31,0.12,0.47,0.12
		C68.41,183.56,68.76,183.36,68.94,183.03z M61.86,179.12c4.73-8.85,7.22-18.9,7.22-29.06c0-10.21-2.52-20.3-7.29-29.18
		c-0.26-0.49-0.87-0.67-1.35-0.41c-0.49,0.26-0.67,0.87-0.41,1.35c4.61,8.6,7.05,18.36,7.05,28.24c0,9.83-2.42,19.55-6.99,28.12
		c-0.26,0.49-0.08,1.09,0.41,1.35c0.15,0.08,0.31,0.12,0.47,0.12C61.34,179.65,61.68,179.46,61.86,179.12z M54.79,175.22
		c4.14-7.65,6.32-16.36,6.32-25.17c0-8.85-2.21-17.59-6.38-25.27c-0.26-0.48-0.87-0.66-1.36-0.4c-0.49,0.26-0.67,0.87-0.4,1.36
		c4.01,7.39,6.14,15.8,6.14,24.32c0,8.48-2.1,16.85-6.08,24.22c-0.26,0.49-0.08,1.09,0.4,1.36c0.15,0.08,0.31,0.12,0.47,0.12
		C54.27,175.74,54.61,175.55,54.79,175.22z M47.72,171.32c3.55-6.45,5.42-13.81,5.42-21.28c0-7.5-1.89-14.89-5.47-21.36
		c-0.27-0.48-0.87-0.66-1.36-0.39c-0.48,0.27-0.66,0.88-0.39,1.36c3.41,6.18,5.22,13.23,5.22,20.39c0,7.13-1.79,14.16-5.18,20.31
		c-0.27,0.48-0.09,1.09,0.39,1.36c0.15,0.08,0.32,0.12,0.48,0.12C47.19,171.84,47.54,171.65,47.72,171.32z M40.64,167.42
		c2.96-5.26,4.53-11.27,4.53-17.39c0-6.14-1.58-12.18-4.56-17.45c-0.27-0.48-0.88-0.65-1.36-0.38c-0.48,0.27-0.65,0.88-0.38,1.36
		c2.81,4.97,4.3,10.67,4.3,16.47c0,5.78-1.48,11.45-4.27,16.41c-0.27,0.48-0.1,1.09,0.38,1.36c0.16,0.09,0.32,0.13,0.49,0.13
		C40.12,167.93,40.46,167.75,40.64,167.42z M33.57,163.53c2.38-4.06,3.63-8.73,3.63-13.51c0-4.79-1.26-9.47-3.65-13.55
		c-0.28-0.48-0.89-0.64-1.37-0.36c-0.48,0.28-0.64,0.89-0.36,1.37c2.21,3.77,3.38,8.1,3.38,12.54c0,4.42-1.16,8.74-3.36,12.5
		c-0.28,0.48-0.12,1.09,0.36,1.37c0.16,0.09,0.33,0.14,0.5,0.14C33.04,164.02,33.38,163.85,33.57,163.53z M26.48,159.64
		c1.79-2.88,2.74-6.21,2.74-9.63c0-3.43-0.95-6.77-2.75-9.66c-0.29-0.47-0.91-0.61-1.38-0.32c-0.47,0.29-0.61,0.91-0.32,1.38
		c1.6,2.57,2.45,5.54,2.45,8.6c0,3.05-0.84,6.01-2.44,8.58c-0.29,0.47-0.15,1.08,0.32,1.38c0.16,0.1,0.35,0.15,0.53,0.15
		C25.97,160.12,26.29,159.95,26.48,159.64z M19.38,155.79c1.21-1.69,1.87-3.75,1.87-5.79c0-2.04-0.67-4.1-1.87-5.79
		c-0.32-0.45-0.94-0.55-1.4-0.23c-0.45,0.32-0.55,0.95-0.23,1.4c1.31,1.83,1.5,3.68,1.5,4.63s-0.2,2.8-1.5,4.63
		c-0.32,0.45-0.22,1.07,0.23,1.39c0.18,0.13,0.38,0.19,0.58,0.19C18.87,156.21,19.18,156.06,19.38,155.79z M5,150
		c0,2.49,2.01,4.5,4.5,4.5s4.5-2.01,4.5-4.5s-2.01-4.5-4.5-4.5S5,147.51,5,150z M150,149c0.55,0,1,0.45,1,1s-0.45,1-1,1s-1-0.45-1-1
		S149.45,149,150,149z"/>
	
		<linearGradient id="SVGID_5_" gradientUnits="userSpaceOnUse" x1="541" y1="2197.9995" x2="661.6686" y2="2197.9995" gradientTransform="matrix(-1 0 0 -1 836 2348)">
		<stop  offset="0" style="stop-color:#44D62C"/>
		<stop id="stopright" offset="1" style="stop-color:#44D62C;stop-opacity:0"/>
		<animate id="right1" xlink:href="#stopright" attributeName="offset" from="1" to="0.6" dur="0.5s" begin="0s;right2.end"/>
		<animate id="right2" xlink:href="#stopright" attributeName="offset" from="0.6" to="1" dur="0.5s" begin="right1.end" />
	</linearGradient>
	<path class="st10" d="M189.53,93c0.15,0,0.31,0.04,0.46,0.11c0.49,0.25,0.69,0.85,0.43,1.35c-8.84,17.25-13.32,35.89-13.32,55.41
		c0,19.62,4.53,38.35,13.45,55.68c0.25,0.49,0.06,1.09-0.43,1.35c-0.49,0.25-1.09,0.06-1.35-0.43
		c-9.08-17.61-13.68-36.65-13.68-56.59c0-19.84,4.55-38.79,13.54-56.32C188.81,93.2,189.16,93,189.53,93z M195.71,97.45
		c-8.27,16.08-12.63,34.21-12.63,52.43c0,18.31,4.41,36.53,12.76,52.68c0.25,0.49,0.86,0.68,1.35,0.43
		c0.49-0.25,0.68-0.86,0.43-1.35c-8.2-15.87-12.54-33.76-12.54-51.76c0-18.15,4.18-35.49,12.41-51.51c0.25-0.49,0.06-1.09-0.43-1.35
		c-0.15-0.08-0.3-0.11-0.46-0.11C196.23,96.91,195.88,97.11,195.71,97.45z M202.78,101.36c-7.68,14.88-11.73,31.66-11.73,48.53
		c0,16.96,4.1,33.82,11.85,48.76c0.25,0.49,0.86,0.68,1.35,0.43c0.49-0.25,0.68-0.86,0.43-1.35c-7.61-14.65-11.63-31.2-11.63-47.84
		c0-16.56,3.98-33.02,11.51-47.61c0.25-0.49,0.06-1.09-0.43-1.35c-0.15-0.08-0.3-0.11-0.46-0.11
		C203.31,100.81,202.96,101.01,202.78,101.36z M209.85,105.26c-7.09,13.67-10.83,29.11-10.83,44.64c0,15.61,3.78,31.12,10.94,44.84
		c0.25,0.49,0.86,0.68,1.35,0.42c0.49-0.25,0.68-0.86,0.42-1.35c-7.01-13.44-10.71-28.63-10.71-43.92
		c0-15.21,3.67-30.33,10.61-43.72c0.25-0.49,0.06-1.09-0.43-1.35c-0.15-0.08-0.3-0.11-0.46-0.11
		C210.38,104.72,210.03,104.92,209.85,105.26z M216.92,109.17c-6.5,12.47-9.93,26.55-9.93,40.74c0,14.26,3.47,28.41,10.03,40.93
		c0.26,0.49,0.86,0.68,1.35,0.42c0.49-0.26,0.68-0.86,0.42-1.35c-6.41-12.23-9.8-26.06-9.8-40c0-13.87,3.36-27.64,9.7-39.82
		c0.25-0.49,0.07-1.09-0.42-1.35c-0.15-0.08-0.31-0.11-0.46-0.11C217.45,108.63,217.1,108.82,216.92,109.17z M223.99,113.07
		c-5.91,11.26-9.03,24-9.03,36.85c0,12.91,3.15,25.71,9.11,37.01c0.26,0.49,0.86,0.67,1.35,0.42c0.49-0.26,0.68-0.86,0.42-1.35
		c-5.81-11.02-8.88-23.5-8.88-36.08c0-12.52,3.04-24.94,8.8-35.92c0.26-0.49,0.07-1.09-0.42-1.35c-0.15-0.08-0.31-0.11-0.46-0.11
		C224.52,112.54,224.17,112.73,223.99,113.07z M231.06,116.97c-5.32,10.06-8.13,21.45-8.13,32.95c0,11.56,2.84,23,8.2,33.1
		c0.26,0.49,0.86,0.68,1.35,0.41c0.49-0.26,0.67-0.86,0.41-1.35c-5.21-9.81-7.97-20.93-7.97-32.16c0-11.18,2.73-22.25,7.89-32.02
		c0.26-0.49,0.07-1.09-0.42-1.35c-0.15-0.08-0.31-0.12-0.47-0.12C231.59,116.44,231.24,116.64,231.06,116.97z M238.14,120.88
		c-4.73,8.85-7.22,18.9-7.22,29.06c0,10.21,2.52,20.3,7.29,29.18c0.26,0.49,0.87,0.67,1.35,0.41c0.49-0.26,0.67-0.87,0.41-1.35
		c-4.61-8.6-7.05-18.36-7.05-28.24c0-9.83,2.42-19.55,6.99-28.12c0.26-0.49,0.08-1.09-0.41-1.35c-0.15-0.08-0.31-0.12-0.47-0.12
		C238.66,120.35,238.32,120.54,238.14,120.88z M245.21,124.78c-4.14,7.65-6.32,16.36-6.32,25.17c0,8.85,2.21,17.59,6.38,25.27
		c0.26,0.48,0.87,0.66,1.36,0.4c0.49-0.26,0.67-0.87,0.4-1.36c-4.01-7.39-6.14-15.8-6.14-24.32c0-8.48,2.1-16.85,6.08-24.22
		c0.26-0.49,0.08-1.09-0.4-1.36c-0.15-0.08-0.31-0.12-0.47-0.12C245.73,124.26,245.39,124.45,245.21,124.78z M252.28,128.68
		c-3.55,6.45-5.42,13.81-5.42,21.28c0,7.5,1.89,14.89,5.47,21.36c0.27,0.48,0.87,0.66,1.36,0.39c0.48-0.27,0.66-0.88,0.39-1.36
		c-3.41-6.18-5.22-13.23-5.22-20.39c0-7.13,1.79-14.16,5.18-20.31c0.27-0.48,0.09-1.09-0.39-1.36c-0.15-0.08-0.32-0.12-0.48-0.12
		C252.81,128.16,252.46,128.35,252.28,128.68z M259.36,132.58c-2.96,5.26-4.53,11.27-4.53,17.39c0,6.14,1.58,12.18,4.56,17.45
		c0.27,0.48,0.88,0.65,1.36,0.38c0.48-0.27,0.65-0.88,0.38-1.36c-2.81-4.97-4.3-10.67-4.3-16.47c0-5.78,1.48-11.45,4.27-16.41
		c0.27-0.48,0.1-1.09-0.38-1.36c-0.16-0.09-0.32-0.13-0.49-0.13C259.88,132.07,259.54,132.25,259.36,132.58z M266.43,136.47
		c-2.38,4.06-3.63,8.73-3.63,13.51c0,4.79,1.26,9.47,3.65,13.55c0.28,0.48,0.89,0.64,1.37,0.36c0.48-0.28,0.64-0.89,0.36-1.37
		c-2.21-3.77-3.38-8.1-3.38-12.54c0-4.42,1.16-8.74,3.36-12.5c0.28-0.48,0.12-1.09-0.36-1.37c-0.16-0.09-0.33-0.14-0.5-0.14
		C266.96,135.98,266.62,136.15,266.43,136.47z M273.52,140.36c-1.79,2.88-2.74,6.21-2.74,9.63c0,3.43,0.95,6.77,2.75,9.66
		c0.29,0.47,0.91,0.61,1.38,0.32c0.47-0.29,0.61-0.91,0.32-1.38c-1.6-2.57-2.45-5.54-2.45-8.6c0-3.05,0.84-6.01,2.44-8.58
		c0.29-0.47,0.15-1.08-0.32-1.38c-0.16-0.1-0.35-0.15-0.53-0.15C274.03,139.88,273.71,140.05,273.52,140.36z M280.62,144.21
		c-1.21,1.69-1.87,3.75-1.87,5.79c0,2.04,0.67,4.1,1.87,5.79c0.32,0.45,0.94,0.55,1.4,0.23c0.45-0.32,0.55-0.95,0.23-1.4
		c-1.31-1.83-1.5-3.68-1.5-4.63s0.2-2.8,1.5-4.63c0.32-0.45,0.22-1.07-0.23-1.39c-0.18-0.13-0.38-0.19-0.58-0.19
		C281.13,143.79,280.82,143.94,280.62,144.21z M295,150c0-2.49-2.01-4.5-4.5-4.5s-4.5,2.01-4.5,4.5s2.01,4.5,4.5,4.5
		S295,152.49,295,150z M150,151c-0.55,0-1-0.45-1-1s0.45-1,1-1s1,0.45,1,1S150.55,151,150,151z"/>
</g>
</svg>
