<?xml version="1.0"?>
<svg xmlns="http://www.w3.org/2000/svg" xmlns:xlink="http://www.w3.org/1999/xlink" version="1.1" id="Capa_1" x="0px" y="0px" viewBox="0 0 512.002 512.002" style="enable-background:new 0 0 512.002 512.002;" xml:space="preserve" width="512px" height="512px" class=""><g><g>
	<g>
		<path d="M502.281,16.993l-0.002-0.012c-0.894-3.575-3.681-6.368-7.253-7.27C441.49-3.811,385.059-3.201,331.828,11.475    c-46.806,12.904-90.164,36.419-126.492,68.451l-8.742-2.72C144.608,61.032,88.4,74.901,49.904,113.397L2.945,160.356    c-3.905,3.905-3.905,10.238,0,14.144l60.533,60.534l11.525,11.525l-30.398,30.398c-3.905,3.905-3.905,10.238,0,14.144    l27.189,27.189l-32.811,83.877c-1.407,3.599-0.616,7.686,2.033,10.5c2.648,2.813,6.68,3.847,10.358,2.659l16.92-5.472    l-21.516,42.18c-1.97,3.863-1.226,8.557,1.843,11.622c3.07,3.064,7.764,3.803,11.625,1.824l42.062-21.542l-5.455,16.868    c-1.189,3.676-0.154,7.708,2.659,10.358c1.889,1.779,4.353,2.72,6.857,2.72c1.225,0,2.459-0.225,3.641-0.687l83.877-32.811    l27.13,27.13c1.953,1.953,4.512,2.929,7.071,2.929s5.119-0.976,7.071-2.929l30.399-30.398l11.423,11.423l60.533,60.534    c1.875,1.875,4.419,2.929,7.071,2.929c2.652,0,5.196-1.054,7.071-2.929l46.958-46.958c38.497-38.497,52.365-94.705,36.192-146.689    l-2.72-8.744c32.028-36.33,55.539-79.687,68.438-126.492C515.201,126.949,515.806,70.509,502.281,16.993z M70.549,213.818    l-46.39-46.39l39.887-39.887c32.734-32.735,80.312-44.834,124.617-31.837L70.549,213.818z M122.378,446.88l6.398-19.785    c1.245-3.85,0.048-8.07-3.033-10.693s-7.437-3.13-11.041-1.285l-36.06,18.468l18.427-36.124c1.837-3.602,1.325-7.955-1.298-11.033    c-2.623-3.077-6.84-4.271-10.688-3.027L65.299,389.8l21.934-56.073l91.218,91.218L122.378,446.88z M228.091,446.299    l-24.575-24.575c-0.015-0.015-0.03-0.03-0.045-0.045L90.506,308.715c-0.019-0.019-0.037-0.037-0.056-0.056l-24.631-24.631    l23.327-23.326l162.271,162.27L228.091,446.299z M384.475,447.97l-39.887,39.887l-46.39-46.391l118.114-118.114    C429.31,367.658,417.21,415.235,384.475,447.97z M404.297,307.08L284.054,427.323L84.693,227.962l19.734-19.734l45.557,45.557    c1.953,1.953,4.512,2.929,7.071,2.929c2.559,0,5.119-0.976,7.071-2.929c3.905-3.905,3.905-10.237,0-14.144l-45.557-45.557    l86.354-86.354c72.775-72.775,179.317-103.15,279.369-80.037C507.429,127.749,477.065,234.291,404.297,307.08z" data-original="#000000" class="active-path" fill="#A000FF"/>
	</g>
</g><g>
	<g>
		<path d="M190.995,266.508c-1.86-1.86-4.44-2.92-7.07-2.92s-5.21,1.06-7.07,2.92c-1.86,1.87-2.93,4.44-2.93,7.08    c0,2.63,1.07,5.21,2.93,7.07c1.86,1.86,4.44,2.93,7.07,2.93s5.21-1.07,7.07-2.93s2.93-4.44,2.93-7.07    C193.925,270.948,192.855,268.378,190.995,266.508z" data-original="#000000" class="active-path" fill="#A000FF"/>
	</g>
</g><g>
	<g>
		<path d="M412.9,153.183c-2.387-4.98-8.36-7.082-13.34-4.695c-4.98,2.386-7.083,8.359-4.697,13.34    c17.399,36.311,9.948,79.848-18.541,108.336c-37.073,37.075-97.398,37.074-134.472,0c-17.96-17.959-27.85-41.837-27.85-67.236    c0-25.398,9.891-49.276,27.85-67.235c28.535-28.536,72.129-35.961,108.469-18.477c4.979,2.397,10.954,0.3,13.348-4.676    c2.395-4.977,0.301-10.954-4.676-13.348C315,78.027,262.243,87.014,227.708,121.548c-21.737,21.737-33.709,50.639-33.709,81.379    c0,30.742,11.972,59.642,33.709,81.379c22.436,22.436,51.908,33.654,81.379,33.654c29.471,0,58.943-11.219,81.379-33.655    C424.944,249.827,433.959,197.133,412.9,153.183z" data-original="#000000" class="active-path" fill="#A000FF"/>
	</g>
</g><g>
	<g>
		<path d="M390.677,121.761l-0.184-0.184c-3.89-3.92-10.221-3.946-14.143-0.056c-3.92,3.89-3.946,10.222-0.056,14.143l0.184,0.184    c1.955,1.971,4.527,2.957,7.1,2.957c2.545,0,5.092-0.966,7.042-2.901C394.541,132.014,394.567,125.683,390.677,121.761z" data-original="#000000" class="active-path" fill="#A000FF"/>
	</g>
</g><g>
	<g>
		<path d="M294.668,142.535h-35.974c-5.523,0-10,4.477-10,10.001v35.974c0,5.523,4.477,10,10,10c5.523,0,10.001-4.477,10.001-10    v-25.973h25.973c5.523,0,10-4.477,10-10C304.669,147.013,300.192,142.535,294.668,142.535z" data-original="#000000" class="active-path" fill="#A000FF"/>
	</g>
</g><g>
	<g>
		<path d="M359.48,207.346c-5.523,0-10,4.477-10,10v25.974h-25.973c-5.523,0-10,4.477-10,10s4.477,10.001,10,10.001h35.974    c5.523,0,10-4.477,10-10.001v-35.975C369.48,211.823,365.003,207.346,359.48,207.346z" data-original="#000000" class="active-path" fill="#A000FF"/>
	</g>
</g><g>
	<g>
		<path d="M353.074,191.505c-1.388-5.346-6.844-8.553-12.193-7.165l-68.614,17.819c-5.346,1.388-8.554,6.847-7.165,12.193    c1.168,4.504,5.225,7.489,9.672,7.489c0.832,0,1.678-0.104,2.521-0.324l68.614-17.819    C351.255,202.31,354.463,196.85,353.074,191.505z" data-original="#000000" class="active-path" fill="#A000FF"/>
	</g>
</g><g>
	<g>
		<path d="M39.411,472.594c-3.904-3.906-10.237-3.906-14.142-0.001L2.935,494.928c-3.905,3.905-3.905,10.237,0,14.144    c1.953,1.953,4.512,2.929,7.071,2.929s5.119-0.976,7.071-2.929l22.334-22.334C43.317,482.833,43.317,476.5,39.411,472.594z" data-original="#000000" class="active-path" fill="#A000FF"/>
	</g>
</g><g>
	<g>
		<path d="M87.415,478.594c-3.905-3.905-10.238-3.905-14.143,0l-16.334,16.334c-3.905,3.905-3.905,10.238,0,14.144    C58.891,511.024,61.45,512,64.01,512c2.559,0,5.119-0.976,7.071-2.929l16.334-16.334C91.32,488.832,91.32,482.5,87.415,478.594z" data-original="#000000" class="active-path" fill="#A000FF"/>
	</g>
</g><g>
	<g>
		<path d="M36.249,424.762c-3.905-3.905-10.238-3.905-14.144,0L2.935,443.934c-3.905,3.905-3.905,10.238,0,14.144    c1.953,1.953,4.512,2.929,7.071,2.929s5.119-0.976,7.071-2.929l19.172-19.172C40.154,435,40.154,428.668,36.249,424.762z" data-original="#000000" class="active-path" fill="#A000FF"/>
	</g>
</g></g> </svg>
